<svg width="1440" height="1511" viewBox="0 0 1440 1511" fill="none" xmlns="http://www.w3.org/2000/svg">
<g opacity="0.2">
<mask id="mask0_81_446" style="mask-type:luminance" maskUnits="userSpaceOnUse" x="-313" y="0" width="2066" height="1511">
<path d="M1526.83 0.522687L-312.423 1150.06L-86.8347 1511L1752.42 361.464L1526.83 0.522687Z" fill="white"/>
</mask>
<g mask="url(#mask0_81_446)">
<path d="M953.235 769.748C930.609 783.889 903.573 794.35 871.133 801.558C836.505 809.254 799.875 812.313 765.324 814.787C745.334 816.219 724.902 817.263 705.142 818.272C645.647 821.31 584.126 824.452 525.26 838.587C455.821 855.259 397.106 889.899 350.732 941.543C322.835 972.611 299.311 1007.86 276.562 1041.94C260.725 1065.68 244.348 1090.21 226.627 1113.14C200.843 1146.51 172.413 1174.19 142.129 1195.4C126.199 1206.59 109.261 1216.26 91.5347 1224.3C73.299 1232.53 54.2938 1238.92 34.7974 1243.4C-54.1103 1263.83 -147.298 1253.09 -237.417 1242.71C-243.573 1242 -249.712 1241.29 -255.835 1240.6L-255.805 1240.33C-249.683 1241.03 -243.543 1241.73 -237.385 1242.44C-147.295 1252.83 -54.1248 1263.56 34.7347 1243.14C108.237 1226.25 172.728 1182.46 226.415 1112.98C244.129 1090.06 260.503 1065.53 276.341 1041.8C299.097 1007.7 322.625 972.448 350.535 941.365C396.946 889.68 455.703 855.018 525.194 838.329C584.085 824.188 645.618 821.046 705.125 818.007C724.883 816.998 745.313 815.955 765.303 814.524C826.037 810.176 909.212 804.222 967.816 759.329C1052.57 694.406 1041.95 580.379 1032.59 479.774C1029.57 447.27 1026.71 416.567 1026.92 388.353C1027.13 360.85 1030.71 339.35 1037.86 322.633C1041.9 312.819 1047.94 303.948 1055.57 296.578C1064.03 288.743 1074.26 283.065 1085.38 280.027C1132.62 266.491 1187.76 279.552 1236.41 291.076C1245.2 293.158 1253.5 295.124 1261.68 296.92L1261.62 297.18C1253.44 295.379 1245.15 293.41 1236.35 291.336C1187.74 279.82 1132.63 266.767 1085.45 280.286C1033.85 295.072 1027.49 349.048 1027.19 388.362C1026.98 416.557 1029.84 447.253 1032.86 479.75C1037.65 531.229 1042.6 584.461 1035.81 633.519C1032.13 660.079 1025.41 682.72 1015.27 702.732C1009.81 713.521 1003.2 723.681 995.535 733.031C987.393 742.887 978.151 751.78 967.988 759.537C963.295 763.133 958.38 766.537 953.243 769.748" fill="url(#paint0_linear_81_446)" fill-opacity="0.7"/>
<path d="M965.872 753.152C921.374 780.963 867.249 789.764 824.183 794.281C806.709 796.116 789.248 797.367 772.862 798.49C755.892 799.654 738.562 800.585 721.802 801.484C672.071 804.149 620.653 806.915 571.183 816.162C558.343 818.564 545.866 821.351 534.097 824.445C466.078 842.354 408.642 878.063 363.379 930.58C336.153 962.157 313.299 997.86 291.197 1032.39C276.037 1056.07 260.362 1080.56 243.426 1103.47C228.476 1123.91 211.752 1142.98 193.448 1160.47C174.519 1178.63 153.458 1194.44 130.727 1207.53C107.347 1220.85 82.026 1230.42 55.6843 1235.89C25.3978 1242.12 -4.73498 1243.13 -40.6615 1242.72C-60.8631 1242.45 -81.6484 1241.41 -101.748 1240.41C-115.167 1239.74 -129.044 1239.05 -142.639 1238.59C-174.506 1237.47 -205.537 1236.94 -235.544 1236.42L-248.331 1236.2L-248.326 1235.88L-235.539 1236.1C-205.529 1236.62 -174.499 1237.15 -142.628 1238.27C-129.032 1238.73 -115.154 1239.42 -101.732 1240.09C-81.6325 1241.1 -60.858 1242.13 -40.6572 1242.4C-4.75229 1242.81 25.3615 1241.8 55.6199 1235.57C105.512 1225.31 150.522 1200.67 193.223 1160.24C211.517 1142.76 228.232 1123.7 243.174 1103.29C260.103 1080.38 275.775 1055.89 290.933 1032.22C313.043 997.681 335.903 961.967 363.141 930.373C408.443 877.808 465.933 842.066 534.016 824.139C545.793 821.043 558.279 818.256 571.126 815.851C620.618 806.601 672.05 803.839 721.788 801.168C738.547 800.268 755.876 799.338 772.843 798.173C789.228 797.05 806.685 795.799 824.157 793.969C870.34 789.122 929.265 779.35 975.328 746.461C1006.82 723.848 1028.03 693.722 1040.19 654.378C1056.77 601.214 1054.18 540.103 1051.68 481.004C1050.35 449.773 1049.1 420.277 1050.71 393.03C1052.31 365.967 1056.61 345.836 1064.26 329.664C1068.64 320.11 1074.86 311.515 1082.57 304.369C1091.12 296.73 1101.3 291.148 1112.34 288.051C1158.93 274.386 1213.07 285.355 1260.84 295.03C1270.11 296.907 1278.86 298.68 1287.48 300.271L1287.43 300.585C1278.8 298.995 1270.05 297.221 1260.78 295.344C1213.05 285.675 1158.94 274.715 1112.43 288.358C1062.62 302.919 1053.45 351.956 1051.02 393.051C1049.41 420.274 1050.67 449.769 1051.99 480.995C1054.5 540.122 1057.1 601.261 1040.49 654.473C1028.31 693.892 1007.06 724.067 975.51 746.722C972.356 748.972 969.144 751.119 965.873 753.16" fill="url(#paint1_linear_81_446)" fill-opacity="0.7"/>
<path d="M978.25 736.983C959.161 748.913 937.12 758.105 911.059 764.999C888.564 770.954 863.311 775.168 831.603 778.254C814.861 779.889 798.512 781.004 780.405 782.192C766.423 783.109 752.153 783.899 738.355 784.665C685.84 787.576 631.534 790.586 579.613 801.318C566.936 803.944 554.596 806.967 542.94 810.305C477.398 828.73 419.122 866.896 376.038 919.612C349.482 951.718 327.295 987.899 305.835 1022.89C291.363 1046.5 276.386 1070.92 260.241 1093.8C245.876 1114.39 229.766 1133.72 212.088 1151.55C191.879 1171.76 171.941 1187.61 151.129 1200C128.175 1213.83 102.934 1223.43 76.5982 1228.37C44.1266 1234.33 10.9316 1232.61 -21.1706 1230.96L-24.6216 1230.78C-34.6699 1230.23 -44.9978 1229.53 -54.9889 1228.86C-80.3159 1227.15 -106.504 1225.39 -132.12 1225.66C-165.117 1225.94 -196.314 1228.35 -226.479 1230.69C-231.269 1231.06 -236.04 1231.43 -240.792 1231.79L-240.82 1231.41C-236.067 1231.05 -231.296 1230.69 -226.508 1230.31C-196.336 1227.97 -165.133 1225.55 -132.117 1225.28C-106.487 1225.01 -80.29 1226.77 -54.9535 1228.47C-44.967 1229.15 -34.6404 1229.84 -24.5951 1230.39L-21.1454 1230.57C10.9357 1232.22 44.1083 1233.94 76.5365 1227.99C124.81 1219.13 169.065 1194.04 211.828 1151.28C229.484 1133.46 245.576 1114.16 259.925 1093.58C276.065 1070.71 291.038 1046.3 305.513 1022.69C326.977 987.692 349.17 951.501 375.743 919.375C418.875 866.599 477.216 828.39 542.832 809.945C554.496 806.607 566.846 803.58 579.532 800.952C631.487 790.211 685.799 787.203 738.336 784.288C752.135 783.524 766.402 782.732 780.382 781.814C798.485 780.627 814.831 779.513 831.565 777.875C877.807 773.373 936.801 764.266 982.829 733.568C1014.25 712.619 1036.32 684.257 1050.3 646.864C1069.1 596.571 1069.9 538.311 1070.68 481.971C1071.09 452.101 1071.48 423.891 1074.48 397.671C1076.37 381.171 1080.11 356.895 1090.64 336.672C1095.36 327.384 1101.78 319.062 1109.55 312.133C1118.19 304.686 1128.34 299.196 1139.3 296.039C1159.83 289.878 1183.52 287.703 1211.72 289.387C1236.54 290.869 1261.32 295.031 1285.29 299.056C1295.02 300.692 1304.22 302.237 1313.29 303.583L1313.23 303.955C1304.17 302.607 1294.96 301.063 1285.22 299.427C1238.37 291.557 1185.26 282.64 1139.41 296.395C1090.84 310.883 1079.4 358.148 1074.86 397.707C1071.86 423.908 1071.47 452.113 1071.06 481.969C1070.28 538.342 1069.48 596.635 1050.66 646.989C1036.65 684.46 1014.53 712.881 983.044 733.876C981.469 734.927 979.872 735.958 978.254 736.969" fill="url(#paint2_linear_81_446)" fill-opacity="0.7"/>
<path d="M991.368 720.568L990.57 721.067C970.236 733.638 946.601 743.117 918.323 750.037C895.987 755.503 870.789 759.377 839.02 762.23C822.001 763.766 804.973 764.829 788.503 765.859L787.946 765.894C776.916 766.585 765.672 767.216 754.788 767.831C699.504 770.941 642.338 774.158 588.042 786.476C575.522 789.325 563.318 792.578 551.782 796.165C486.584 816.476 431.711 854.321 388.688 908.65C362.796 941.309 341.275 977.992 320.465 1013.47C306.669 1036.98 292.403 1061.3 277.039 1084.13C263.255 1104.89 247.758 1124.47 230.711 1142.65C210.796 1163.72 191.426 1180.01 171.506 1192.47L171.422 1192.52C148.951 1206.88 123.798 1216.52 97.4895 1220.87C66.2641 1225.94 34.5335 1222.93 3.84951 1220.02C-0.237422 1219.64 -4.46147 1219.23 -8.60905 1218.86C-14.3062 1218.34 -20.1484 1217.79 -25.7974 1217.25C-57.2581 1214.25 -89.7895 1211.15 -121.618 1212.76C-156.456 1214.41 -188.449 1219.83 -219.391 1225.07C-223.95 1225.84 -228.661 1226.64 -233.272 1227.4L-233.343 1226.97C-228.735 1226.21 -224.02 1225.41 -219.463 1224.64C-188.508 1219.4 -156.5 1213.98 -121.638 1212.33C-89.7789 1210.72 -57.2321 1213.82 -25.7559 1216.82C-20.1042 1217.35 -14.266 1217.91 -8.56967 1218.43C-4.42521 1218.8 -0.201323 1219.2 3.88974 1219.59C34.5475 1222.5 66.2493 1225.51 97.4196 1220.44C145.086 1212.69 187.34 1187.88 230.397 1142.36C247.429 1124.19 262.912 1104.63 276.684 1083.88C292.04 1061.07 306.302 1036.75 320.096 1013.24C340.915 977.755 362.442 941.059 388.353 908.377C431.43 853.979 486.373 816.085 551.657 795.748C563.209 792.164 575.425 788.898 587.947 786.052C642.281 773.727 699.465 770.509 754.767 767.397C765.644 766.784 776.891 766.152 787.921 765.46L788.478 765.425C804.944 764.397 821.968 763.332 838.982 761.797C888.087 757.39 944.471 749.06 990.342 720.698C1021.79 701.262 1044.71 674.652 1060.42 639.369C1081.57 591.865 1085.72 536.329 1089.74 482.623C1091.87 454.239 1093.87 427.425 1098.26 402.328C1105.35 361.805 1118.96 318.439 1166.25 304.052C1186.5 297.837 1209.79 295.231 1237.44 296.084C1261.8 296.834 1286.17 300.077 1309.74 303.214C1319.94 304.574 1329.59 305.855 1339.09 306.924L1339.04 307.354C1329.53 306.284 1319.89 305.002 1309.69 303.642C1263.71 297.523 1211.6 290.589 1166.38 304.465C1119.32 318.786 1105.75 362.01 1098.69 402.401C1094.3 427.482 1092.3 454.282 1090.18 482.652C1086.15 536.391 1081.99 591.961 1060.81 639.539C1045.2 674.604 1022.48 701.118 991.369 720.564" fill="url(#paint3_linear_81_446)" fill-opacity="0.7"/>
<path d="M1004.9 704.178C1002.68 705.572 1000.41 706.928 998.098 708.249C952.086 734.499 895.612 742.168 846.436 746.204C830.649 747.509 814.797 748.45 799.459 749.362L795.482 749.598C787.372 750.084 779.107 750.547 771.114 750.996C713.084 754.264 653.071 757.631 596.462 771.637C584.098 774.706 572.038 778.201 560.609 782.033C496.815 803.507 443.224 842.42 401.325 897.692C376.095 930.927 355.241 968.138 335.074 1004.12C321.962 1027.52 308.404 1051.72 293.825 1074.45C280.618 1095.39 265.735 1115.22 249.323 1133.74C229.77 1155.62 210.976 1172.36 191.866 1184.9C168.353 1200.33 144.316 1209.64 118.368 1213.36C87.4777 1217.78 56.254 1213.52 26.0571 1209.4C19.9299 1208.56 13.5946 1207.7 7.39814 1206.92C4.77634 1206.6 2.14617 1206.27 -0.49242 1205.94C-36.8006 1201.37 -74.3444 1196.66 -111.121 1199.84C-147.861 1202.89 -180.692 1211.37 -212.442 1219.57C-216.817 1220.7 -221.339 1221.87 -225.757 1223L-225.872 1222.52C-221.454 1221.4 -216.929 1220.23 -212.559 1219.1C-180.789 1210.89 -147.936 1202.4 -111.154 1199.35C-74.3256 1196.16 -36.7548 1200.89 -0.423412 1205.45C2.21465 1205.78 4.84486 1206.11 7.46719 1206.44C13.6666 1207.21 20.004 1208.08 26.1313 1208.91C56.2942 1213.03 87.4832 1217.29 118.306 1212.88C179.618 1204.1 222.241 1163.33 248.963 1133.41C265.358 1114.91 280.226 1095.1 293.419 1074.19C307.992 1051.45 321.541 1027.27 334.646 1003.87C354.82 967.87 375.682 930.642 400.934 897.38C421.051 870.624 444.975 846.955 471.945 827.126C498.955 807.508 528.809 792.141 560.47 781.559C571.905 777.728 583.979 774.227 596.356 771.155C653.005 757.143 713.035 753.768 771.087 750.499C779.081 750.05 787.345 749.586 795.455 749.1L799.431 748.865C814.759 747.955 830.609 747.015 846.391 745.71C895.512 741.673 951.922 734.02 997.848 707.813C1029.32 689.86 1053.09 665.014 1070.53 631.858C1094.11 587.024 1101.63 534.098 1108.91 482.915C1112.71 456.144 1116.31 430.855 1122.04 406.975C1126.32 389.179 1132.2 368.583 1143.41 350.733C1155.59 331.332 1171.88 318.681 1193.21 312.059C1213.18 305.794 1236.06 302.77 1263.17 302.817C1287.07 302.859 1311.03 305.203 1334.21 307.47C1344.88 308.513 1354.95 309.499 1364.89 310.257L1364.86 310.744C1354.91 309.992 1344.83 309 1334.16 307.957C1289.05 303.543 1237.93 298.543 1193.35 312.527C1147.66 326.716 1132.31 366.362 1122.52 407.091C1116.78 430.947 1113.19 456.224 1109.39 482.985C1102.11 534.209 1094.58 587.182 1070.97 632.087C1054.77 662.893 1033.1 686.552 1004.9 704.18" fill="url(#paint4_linear_81_446)" fill-opacity="0.7"/>
<path d="M1019.06 687.723C1014.72 690.433 1010.24 692.997 1005.62 695.415C984.965 706.227 961.158 714.301 932.841 720.099C910.617 724.65 886.26 727.762 853.854 730.17C839.367 731.259 824.771 732.074 810.657 732.861L803.03 733.289C797.808 733.585 792.58 733.876 787.346 734.163C726.581 737.522 663.748 740.994 604.908 756.778C592.697 760.065 580.773 763.795 569.474 767.872C507.079 790.484 454.775 830.462 413.999 886.705C389.423 920.545 369.236 958.316 349.715 994.843C337.294 1018.09 324.441 1042.13 310.654 1064.77C298.02 1085.87 283.751 1105.95 267.976 1124.82C248.594 1147.8 230.89 1164.48 212.261 1177.3C189.066 1193.27 165.19 1202.61 139.283 1205.83C108.132 1209.72 76.7932 1204.21 46.4869 1198.88C38.9135 1197.55 31.0801 1196.17 23.4397 1194.98L22.4507 1194.83C-17.9088 1188.53 -59.6423 1182.01 -100.589 1186.91C-139.248 1191.39 -172.909 1202.99 -205.461 1214.21C-209.647 1215.65 -213.974 1217.14 -218.204 1218.58L-218.38 1218.06C-214.147 1216.62 -209.824 1215.13 -205.638 1213.69C-173.057 1202.46 -139.371 1190.85 -100.652 1186.37C-59.6326 1181.46 -17.8649 1187.98 22.5356 1194.29L23.5245 1194.44C31.1714 1195.63 39.0061 1197.01 46.5838 1198.34C76.851 1203.67 108.148 1209.17 139.217 1205.29C198.83 1197.86 239.121 1158.19 267.56 1124.47C283.316 1105.62 297.568 1085.56 310.186 1064.48C323.965 1041.86 336.81 1017.83 349.232 994.584C368.762 958.042 388.959 920.254 413.554 886.384C432.97 859.343 456.18 835.241 482.471 814.82C508.795 794.625 538.082 778.618 569.294 767.367C580.611 763.288 592.546 759.55 604.772 756.259C663.667 740.46 726.533 736.993 787.322 733.626C792.554 733.337 797.782 733.045 803.006 732.752L810.633 732.324C824.745 731.536 839.334 730.725 853.819 729.634C902.984 725.97 959.442 718.988 1005.37 694.94C1036.87 678.455 1061.49 655.37 1080.67 624.356C1106.8 582.083 1117.73 531.617 1128.29 482.815C1133.7 457.796 1138.82 434.161 1145.84 411.626C1151.2 394.433 1158.23 374.59 1169.8 357.772C1182.66 339.07 1199.14 326.739 1220.18 320.074C1239.87 313.761 1262.35 310.336 1288.92 309.602C1312.36 308.955 1335.91 310.421 1358.68 311.834C1369.81 312.527 1380.32 313.182 1390.7 313.592L1390.68 314.138C1380.29 313.726 1369.77 313.072 1358.64 312.379C1312.24 309.491 1264.26 306.505 1220.34 320.591C1175.9 334.67 1158.52 372.743 1146.35 411.788C1139.34 434.299 1134.22 457.921 1128.81 482.929C1118.24 531.777 1107.31 582.287 1081.13 624.64C1065.66 650.236 1044.4 671.844 1019.06 687.723Z" fill="url(#paint5_linear_81_446)" fill-opacity="0.7"/>
<path d="M1034.27 671.046C1027.46 675.295 1020.4 679.153 1013.15 682.6C967.297 704.472 913.055 710.69 861.265 714.154C848.144 715.04 834.885 715.729 822.063 716.397C818.218 716.6 814.386 716.801 810.567 717L803.471 717.379C739.99 720.771 674.346 724.278 613.335 741.942C601.272 745.448 589.489 749.417 578.318 753.744C517.314 777.469 466.285 818.517 426.65 875.75C402.732 910.217 383.209 948.572 364.333 985.67C352.599 1008.75 340.464 1032.6 327.465 1055.1C315.425 1076.39 301.767 1096.72 286.613 1115.92C267.729 1139.68 250.583 1156.77 232.638 1169.71C209.79 1186.19 186.089 1195.55 160.184 1198.33C128.453 1201.74 96.673 1194.98 65.9415 1188.44C57.2347 1186.59 48.2299 1184.68 39.4704 1183.05C1.62384 1176.04 -45.4774 1167.32 -90.0664 1173.99C-130.654 1179.91 -165.131 1194.69 -198.466 1208.97C-202.471 1210.69 -206.614 1212.46 -210.66 1214.17L-210.894 1213.62C-206.851 1211.91 -202.709 1210.13 -198.703 1208.42C-165.329 1194.12 -130.817 1179.33 -90.157 1173.39C-45.4702 1166.7 1.68694 1175.44 39.5763 1182.45C48.3489 1184.08 57.3558 1185.99 66.0691 1187.85C96.7547 1194.37 128.487 1201.12 160.122 1197.72C218.947 1191.41 258.378 1150.48 286.146 1115.53C301.281 1096.36 314.921 1076.05 326.947 1054.79C339.936 1032.31 352.078 1008.46 363.806 985.396C382.691 948.28 402.219 909.901 426.166 875.392C444.885 848.059 467.385 823.518 492.995 802.504C518.629 781.729 547.347 765.08 578.112 753.156C589.303 748.829 601.102 744.853 613.182 741.342C674.26 723.66 739.938 720.151 803.452 716.757L810.549 716.377C814.363 716.174 818.195 715.973 822.044 715.774C834.865 715.107 848.12 714.418 861.237 713.532C912.963 710.075 967.135 703.866 1012.89 682.039C1044.02 667.333 1070.85 644.876 1090.8 616.822C1119.66 576.989 1134.07 528.816 1148 482.229C1154.6 460.135 1161.43 437.29 1169.63 416.246C1176.42 398.814 1184.33 380.517 1196.18 364.784C1208.82 347.431 1226.68 334.565 1247.14 328.06C1266.54 321.703 1288.63 317.89 1314.65 316.398C1337.64 315.085 1360.77 315.692 1383.14 316.28C1394.73 316.584 1405.68 316.873 1416.51 316.904L1416.51 317.505C1405.67 317.472 1394.72 317.191 1383.12 316.88C1337.64 315.683 1290.61 314.449 1247.33 328.627C1202.02 343.276 1183.76 381.645 1170.2 416.459C1162.01 437.48 1155.49 459.299 1148.58 482.403C1134.64 529.035 1120.22 577.26 1091.3 617.175C1081.81 630.433 1070.79 642.527 1058.47 653.21C1050.88 659.759 1042.8 665.716 1034.29 671.028" fill="url(#paint6_linear_81_446)" fill-opacity="0.7"/>
<path d="M240.948 1170.39C222.91 1181.89 202.378 1188.89 181.075 1190.81C148.578 1193.76 116.165 1185.76 84.8198 1178.02C75.1641 1175.64 65.1786 1173.17 55.4827 1171.11C9.49935 1161.35 -35.4369 1153.24 -79.5601 1161.07C-122.077 1168.45 -157.348 1186.43 -191.456 1203.83C-195.292 1205.78 -199.259 1207.8 -203.131 1209.76L-203.426 1209.17C-199.555 1207.22 -195.593 1205.19 -191.754 1203.24C-157.602 1185.83 -122.287 1167.82 -79.674 1160.42C-59.3051 1156.81 -36.9886 1156.34 -11.4526 1158.99C11.8927 1161.41 35.4068 1166.19 55.6127 1170.47C65.3207 1172.53 75.3091 1175 84.9713 1177.39C116.264 1185.11 148.622 1193.1 181.01 1190.16C239.23 1184.87 277.701 1142.73 304.714 1106.6C319.203 1087.09 332.23 1066.53 343.689 1045.1C355.89 1022.79 367.31 999.166 378.36 976.321C396.599 938.596 415.459 899.589 438.762 864.403C456.785 836.783 478.573 811.812 503.494 790.212C528.442 768.866 556.594 751.58 586.917 738.989C597.987 734.408 609.644 730.198 621.58 726.471C684.777 706.8 752.549 703.362 818.088 700.046C823.273 699.784 828.586 699.535 833.724 699.284C845.16 698.737 856.983 698.171 868.654 697.473C920.513 694.408 974.791 688.859 1020.41 669.177C1051.59 655.844 1079.18 635.335 1100.93 609.319C1132.76 571.801 1150.79 525.724 1168.21 481.159C1176.07 461.058 1184.2 440.271 1193.41 420.896C1200.84 405.265 1209.83 387.296 1222.55 371.866C1235.9 355.198 1253.8 342.767 1274.09 336.083C1316.9 321.858 1363.1 321.362 1407.77 320.886C1419.76 320.759 1431.08 320.634 1442.3 320.256L1442.32 320.912C1431.09 321.294 1419.77 321.413 1407.78 321.542C1363.16 322.016 1317.01 322.508 1274.3 336.704C1230.31 351.321 1210.51 386.449 1194 421.171C1184.81 440.525 1176.68 461.301 1168.82 481.391C1151.38 526.003 1133.34 572.137 1101.43 609.736C1091.12 622.01 1079.5 633.131 1066.79 642.903C1052.59 653.739 1037.1 662.763 1020.66 669.766C999.701 678.807 975.719 685.476 947.344 690.153C919.61 694.724 890.738 696.807 868.684 698.111C857.009 698.808 845.183 699.375 833.747 699.923C828.61 700.169 823.296 700.423 818.113 700.683C752.615 704.004 684.887 707.439 621.775 727.077C609.858 730.8 598.215 735.004 587.17 739.575C527.549 764.388 477.799 806.506 439.309 864.756C416.034 899.902 397.184 938.89 378.954 976.594C367.904 999.451 356.478 1023.08 344.266 1045.39C332.792 1066.85 319.748 1087.44 305.24 1106.98C286.918 1131.48 270.319 1148.99 253.002 1162.06C249.016 1165.07 244.996 1167.84 240.943 1170.38" fill="url(#paint7_linear_81_446)" fill-opacity="0.7"/>
<path d="M259.503 1164.25C242.196 1175.26 222.428 1181.81 201.97 1183.3C168.584 1185.81 135.415 1176.56 103.337 1167.62C92.853 1164.7 82.0099 1161.68 71.5021 1159.18C26.0542 1148.39 -22.2333 1138.65 -69.0441 1148.15C-113.492 1157.01 -149.542 1178.24 -184.406 1198.78C-188.082 1200.95 -191.883 1203.18 -195.591 1205.35L-195.95 1204.73C-192.242 1202.57 -188.437 1200.33 -184.769 1198.17C-149.853 1177.6 -113.748 1156.33 -69.184 1147.45C-22.2322 1137.92 26.1442 1147.68 71.6692 1158.49C82.1907 1160.99 93.0419 1164.01 103.532 1166.93C135.55 1175.86 168.654 1185.08 201.919 1182.59C259.355 1178.27 295.506 1137.24 323.301 1097.67C337.139 1077.82 349.553 1057.01 360.449 1035.4C371.863 1013.31 382.574 989.95 392.93 967.356C410.521 928.985 428.711 889.307 451.367 853.411C468.701 825.496 489.781 800.091 514.018 777.904C538.272 755.983 565.853 738.054 595.732 724.787C606.667 719.958 618.195 715.514 629.987 711.563C658.076 702.203 689.582 695.488 726.303 691.034C759.151 687.05 792.027 685.281 825.621 683.682C832.283 683.369 839.113 683.071 845.721 682.785C855.662 682.355 865.941 681.909 876.064 681.382C924.558 678.891 980.281 674.696 1027.93 656.291C1059.22 644.29 1087.57 625.708 1111.07 601.803C1146.22 566.473 1168.08 522.251 1189.22 479.484C1198.08 461.561 1207.24 443.027 1217.21 425.531C1226.56 409.114 1236.03 393.197 1248.91 378.899C1262.93 362.926 1280.91 350.924 1301.04 344.096C1343.18 329.802 1388.4 327.656 1432.14 325.581C1444.6 324.993 1456.39 324.429 1468.09 323.597L1468.13 324.301C1456.43 325.134 1444.64 325.694 1432.17 326.285C1388.48 328.359 1343.31 330.503 1301.27 344.764C1255.13 360.414 1233.56 398.254 1217.82 425.885C1207.86 443.362 1198.7 461.886 1189.85 479.801C1168.69 522.618 1146.8 566.893 1111.57 602.306C1100.45 613.575 1088.24 623.721 1075.13 632.596C1060.45 642.467 1044.7 650.637 1028.18 656.948C980.434 675.391 924.642 679.594 876.096 682.087C865.974 682.612 855.689 683.06 845.746 683.49C839.137 683.771 832.308 684.073 825.649 684.387C754.221 687.792 690.213 692.237 630.202 712.235C618.428 716.175 606.925 720.614 596.01 725.435C537.758 751.309 489.29 794.495 451.954 853.787C429.322 889.643 411.146 929.296 393.562 967.649C383.205 990.256 372.487 1013.62 361.066 1035.72C350.155 1057.36 337.723 1078.19 323.865 1098.07C312.719 1113.94 295.356 1137.05 273.363 1154.44C268.922 1157.96 264.29 1161.23 259.488 1164.25" fill="url(#paint8_linear_81_446)" fill-opacity="0.7"/>
<path d="M278.35 1157.96C261.68 1168.54 242.579 1174.68 222.865 1175.79C188.509 1177.85 154.499 1167.37 121.61 1157.22C110.377 1153.76 98.7617 1150.18 87.5256 1147.25C42.7557 1135.57 -9.14429 1124.04 -58.5257 1135.23C-104.905 1145.58 -141.723 1170.1 -177.33 1193.81C-180.852 1196.16 -184.496 1198.59 -188.051 1200.93L-188.474 1200.29C-184.919 1197.94 -181.277 1195.52 -177.755 1193.17C-142.092 1169.42 -105.211 1144.86 -58.6943 1134.48C-9.14528 1123.26 42.8661 1134.81 87.7201 1146.5C98.9725 1149.44 110.596 1153.02 121.83 1156.49C154.656 1166.61 188.598 1177.08 222.816 1175.02C279.927 1171.6 315.047 1129.48 341.873 1088.74C355.059 1068.55 366.861 1047.5 377.197 1025.71C387.825 1003.88 397.825 980.828 407.494 958.53C424.434 919.469 441.95 879.078 463.966 842.426C480.612 814.216 500.984 788.377 524.531 765.607C548.092 743.111 575.108 724.539 604.55 710.597C615.356 705.516 626.744 700.83 638.398 696.668C666.387 686.712 697.699 679.588 734.122 674.882C768.373 670.46 803.204 668.665 833.168 667.327C841.404 666.962 849.856 666.639 858.026 666.327C866.372 666.008 875 665.677 883.486 665.3C934.473 663.079 988.207 659.561 1035.46 643.409C1066.97 632.779 1096.1 616.091 1121.21 594.283C1160.15 561.019 1186.18 518.371 1211.35 477.132C1220.83 461.595 1230.64 445.529 1241 430.167C1250.51 416.078 1261.29 400.112 1275.26 385.93C1289.94 370.665 1308.01 359.076 1328 352.104C1369.43 337.764 1413.65 334.017 1456.42 330.395C1469.41 329.294 1481.68 328.256 1493.88 326.932L1493.97 327.695C1481.75 329.021 1469.48 330.06 1456.49 331.159C1413.76 334.776 1369.59 338.516 1328.26 352.828C1283.72 368.251 1260.39 402.817 1241.64 430.592C1231.29 445.939 1221.49 461.995 1212.01 477.531C1199.41 498.178 1186.38 519.53 1171.89 539.441C1155.64 561.778 1139.23 579.908 1121.71 594.869C1109.81 605.12 1097.01 614.297 1083.49 622.292C1068.35 631.187 1052.34 638.506 1035.71 644.136C988.365 660.32 934.569 663.845 883.525 666.067C875.039 666.443 866.407 666.774 858.062 667.094C849.891 667.408 841.44 667.732 833.205 668.096C765.605 671.111 699.859 675.626 638.662 697.392C627.03 701.545 615.666 706.223 604.884 711.292C547.19 738.586 501.313 781.609 464.636 842.818C442.646 879.425 425.141 919.793 408.21 958.831C398.536 981.135 388.531 1004.2 377.9 1026.04C367.549 1047.86 355.731 1068.94 342.526 1089.16C330.881 1106.84 314.814 1129.38 293.759 1146.8C288.879 1150.85 283.736 1154.58 278.364 1157.95" fill="url(#paint9_linear_81_446)" fill-opacity="0.7"/>
<path d="M297.533 1151.46C281.39 1161.68 262.844 1167.48 243.753 1168.28C208.368 1169.9 173.45 1158.17 139.692 1146.83C127.769 1142.83 115.441 1138.68 103.535 1135.33C57.4033 1122.28 3.84287 1109.44 -48.0184 1122.32C-96.3281 1134.17 -133.899 1162.01 -170.235 1188.93C-173.619 1191.44 -177.11 1194.02 -180.52 1196.53L-181.006 1195.86C-177.593 1193.36 -174.105 1190.77 -170.722 1188.26C-152.823 1175 -134.313 1161.29 -114.23 1149.41C-91.4968 1135.96 -69.9025 1126.84 -48.2122 1121.52C-25.1457 1115.79 -0.0215962 1114.7 28.5942 1118.17C55.367 1121.42 81.6172 1128.27 103.763 1134.53C115.684 1137.9 128.026 1142.05 139.957 1146.06C173.648 1157.37 208.485 1169.07 243.721 1167.46C300.614 1164.87 334.655 1121.7 360.453 1079.82C372.983 1059.3 384.172 1037.99 393.951 1016.03C403.796 994.505 413.083 971.804 422.066 949.856C438.352 910.056 455.191 868.902 476.576 831.443C492.536 802.934 512.199 776.662 535.052 753.312C557.916 730.247 584.362 711.034 613.364 696.417C624.032 691.084 635.284 686.16 646.805 681.78C674.676 671.227 705.789 663.693 741.937 658.739C775.582 654.128 809.294 652.285 840.713 650.978C850.658 650.568 860.863 650.233 870.729 649.91C877.346 649.694 884.189 649.469 890.911 649.222C944.416 647.315 996.306 644.447 1042.99 630.531C1074.76 621.16 1104.66 606.352 1131.37 586.765C1174.73 555.451 1204.06 515.884 1235.11 473.989C1244.68 461.075 1254.58 447.722 1264.82 434.795L1265.96 433.348C1287.49 406.156 1311.9 375.339 1354.97 360.117C1395.63 345.745 1438.81 340.466 1480.57 335.361C1494.12 333.704 1506.92 332.139 1519.69 330.273L1519.8 331.087C1507.04 332.952 1494.23 334.52 1480.67 336.179C1438.96 341.279 1395.82 346.553 1355.25 360.895C1312.4 376.04 1288.07 406.758 1266.61 433.863L1265.47 435.31C1255.24 448.227 1245.34 461.575 1235.78 474.483C1220.87 494.587 1205.47 515.375 1188.72 534.56C1169.97 556.053 1151.37 573.348 1131.86 587.437C1119.18 596.655 1105.8 604.864 1091.83 611.99C1076.26 619.9 1059.99 626.371 1043.23 631.322C996.458 645.265 944.51 648.134 890.951 650.048C884.228 650.293 877.385 650.518 870.766 650.735C860.901 651.058 850.7 651.392 840.759 651.804C776.854 654.459 709.26 659.021 647.108 682.553C635.612 686.922 624.388 691.835 613.745 697.156C557.392 725.473 512.761 769.535 477.288 831.855C455.935 869.264 439.107 910.393 422.831 950.168C413.847 972.126 404.555 994.833 394.703 1016.37C384.91 1038.36 373.704 1059.7 361.156 1080.25C344.615 1107.11 324.686 1134.49 297.537 1151.46" fill="url(#paint10_linear_81_446)" fill-opacity="0.7"/>
<path d="M316.78 1144.93C301.148 1154.81 283.137 1160.28 264.651 1160.77C228.192 1161.92 192.337 1148.96 157.659 1136.42C145.09 1131.88 132.091 1127.18 119.563 1123.38C68.5424 1107.91 14.2026 1095.5 -37.4974 1109.4C-87.7397 1122.75 -126.055 1153.93 -163.105 1184.09C-166.349 1186.73 -169.704 1189.46 -172.979 1192.1L-173.532 1191.42C-170.259 1188.78 -166.905 1186.05 -163.661 1183.41C-145.423 1168.56 -126.564 1153.21 -105.948 1139.88C-82.6046 1124.79 -60.2865 1114.54 -37.7198 1108.54C14.1892 1094.59 68.6727 1107.02 119.82 1122.54C132.374 1126.35 145.382 1131.05 157.963 1135.6C192.561 1148.1 228.338 1161.04 264.628 1159.89C321.399 1158.09 354.314 1113.89 379.034 1070.88C390.904 1050.03 401.48 1028.48 410.703 1006.33C419.77 985.167 428.347 962.883 436.643 941.334C452.267 900.741 468.427 858.768 489.171 820.453C504.447 791.642 523.402 764.938 545.56 741.011C567.727 717.377 593.604 697.521 622.17 682.225C632.908 676.542 643.935 671.421 655.205 666.883C682.933 655.737 713.855 647.79 749.746 642.584C784.267 637.578 818.912 635.749 848.252 634.62C860.038 634.171 872.12 633.848 883.805 633.536C888.649 633.406 893.49 633.274 898.328 633.138C954.468 631.577 1004.67 629.335 1050.51 617.647C1082.62 609.524 1113.3 596.575 1141.52 579.241C1190.17 549.798 1224.64 511.007 1261.15 469.933C1270.05 459.915 1279.26 449.556 1288.63 439.419C1289.71 438.254 1290.79 437.078 1291.88 435.891C1314.71 411.114 1340.58 383.037 1381.93 368.125C1421.75 353.759 1463.81 347.011 1504.5 340.495C1518.69 338.226 1532.08 336.073 1545.47 333.606L1545.63 334.471C1532.23 336.937 1518.83 339.085 1504.64 341.36C1464 347.876 1421.98 354.609 1382.23 368.95C1341.09 383.79 1315.29 411.786 1292.53 436.486C1291.44 437.671 1290.35 438.847 1289.28 440.014C1279.92 450.144 1270.71 460.5 1261.81 470.516C1244.25 490.282 1226.08 510.725 1206.71 529.337C1185.06 550.164 1163.88 566.73 1141.98 579.986C1113.69 597.368 1082.92 610.354 1050.73 618.499C1004.8 630.209 954.548 632.455 898.353 634.017C893.518 634.156 888.677 634.288 883.83 634.415C872.147 634.728 860.069 635.05 848.287 635.5C788.016 637.818 718.447 642.412 655.535 667.699C644.294 672.225 633.296 677.333 622.585 683.002C567.596 712.33 524.21 757.43 489.947 820.872C469.228 859.134 453.081 901.083 437.466 941.65C429.168 963.208 420.587 985.5 411.514 1006.68C402.276 1028.85 391.683 1050.44 379.794 1071.32C363.701 1099.33 344.123 1127.84 316.78 1144.93Z" fill="url(#paint11_linear_81_446)" fill-opacity="0.7"/>
<path d="M336.22 1138.32C332.374 1140.74 328.369 1142.88 324.232 1144.75C312.049 1150.18 298.885 1153.08 285.546 1153.25C248.137 1153.94 211.449 1139.81 175.97 1126.14C162.026 1120.77 148.854 1115.7 135.581 1111.44C85.7201 1095.25 27.4174 1080.82 -26.9776 1096.47C-79.1501 1111.34 -118.19 1145.89 -155.952 1179.31C-159.068 1182.06 -162.29 1184.92 -165.435 1187.68L-166.057 1186.98C-162.912 1184.21 -159.691 1181.36 -156.576 1178.61C-138.004 1162.17 -118.802 1145.18 -97.6579 1130.39C-73.7043 1113.64 -50.6719 1102.25 -27.2406 1095.57C-2.37785 1088.41 24.6203 1086.89 55.305 1090.91C85.0762 1094.81 113.997 1103.46 135.866 1110.56C149.163 1114.82 162.346 1119.9 176.304 1125.27C211.698 1138.9 248.3 1153 285.528 1152.32C342.261 1151.28 374.019 1106.06 397.606 1061.96C408.816 1040.79 418.782 1018.98 427.454 996.648C435.753 975.899 443.619 954.094 451.232 933.004C466.191 891.559 481.66 848.702 501.773 809.472C534.889 744.713 577.155 698.45 630.976 668.036C641.555 662.103 652.447 656.745 663.604 651.987C724.216 626.181 791.792 620.527 855.789 618.263C869.569 617.779 883.67 617.496 897.307 617.224L905.742 617.054C956.952 616.031 1009.91 614.985 1058.04 604.762C1090.55 597.837 1122.02 586.731 1151.68 571.722C1206.81 544.096 1247.41 505.589 1290.4 464.821C1297.57 458.017 1304.99 450.983 1312.43 444.047C1314.38 442.237 1316.33 440.407 1318.3 438.558C1342.21 416.124 1369.32 390.696 1408.88 376.136C1447.76 361.822 1488.6 353.706 1528.1 345.854C1542.37 343.018 1557.13 340.085 1571.25 336.948L1571.46 337.86C1557.32 340.999 1542.56 343.933 1528.28 346.77C1488.82 354.615 1448.02 362.724 1409.2 377.012C1369.82 391.507 1342.79 416.869 1318.94 439.238C1316.97 441.082 1315.01 442.915 1313.08 444.736C1305.64 451.669 1298.22 458.701 1291.05 465.505C1256.11 498.636 1222.75 530.28 1181.87 555.828C1172.39 561.754 1162.51 567.351 1152.1 572.564C1122.38 587.611 1090.83 598.746 1058.24 605.689C1010.03 615.93 957.026 616.982 905.77 618.001L897.333 618.172C883.698 618.444 869.603 618.728 855.83 619.211C791.922 621.472 724.448 627.114 663.978 652.861C652.853 657.605 641.993 662.947 631.445 668.863C577.79 699.176 535.642 745.314 502.612 809.905C482.527 849.082 467.067 891.911 452.119 933.329C444.504 954.427 436.63 976.243 428.331 997C419.647 1019.36 409.667 1041.2 398.442 1062.41C388.27 1081.41 374.133 1105.58 354.882 1123.8C349.165 1129.25 342.919 1134.12 336.236 1138.33" fill="url(#paint12_linear_81_446)" fill-opacity="0.7"/>
<path d="M355.822 1131.63C341.03 1140.92 323.9 1145.82 306.431 1145.74C267.876 1145.95 230.161 1130.58 193.689 1115.72C179.148 1109.79 165.413 1104.2 151.593 1099.51C100.24 1081.92 40.1134 1066.27 -16.4674 1083.55C-70.5699 1099.95 -110.333 1137.89 -148.789 1174.58C-151.784 1177.44 -154.875 1180.39 -157.904 1183.26L-158.586 1182.54C-155.564 1179.68 -152.468 1176.72 -149.473 1173.87C-130.571 1155.83 -111.024 1137.18 -89.3622 1120.93C-64.8086 1102.5 -41.0605 1089.97 -16.7553 1082.6C8.98075 1074.74 36.9168 1073.01 68.6507 1077.3C99.6679 1081.5 129.441 1090.87 151.913 1098.57C165.761 1103.27 179.509 1108.87 194.064 1114.8C230.446 1129.63 268.067 1144.96 306.428 1144.75C363.188 1144.45 393.76 1098.21 416.178 1053.03C426.724 1031.54 436.079 1009.48 444.202 986.959C451.73 966.702 458.897 945.442 465.83 924.881C480.115 882.513 494.886 838.704 514.365 798.479C546.233 732.545 587.255 685.228 639.78 653.846C650.199 647.663 660.956 642.069 672.001 637.091C699.413 624.755 729.946 615.988 765.36 610.275C793.315 605.769 823.529 603.188 863.327 601.903C879.276 601.393 895.561 601.19 911.306 600.99L920.115 600.885C968.947 600.32 1019.44 599.736 1065.57 591.875C1098.58 586.225 1130.87 576.941 1161.84 564.191C1225.06 538.41 1273.18 499.548 1324.14 458.418C1328.16 455.176 1332.19 451.923 1336.24 448.658C1339.26 446.221 1342.37 443.697 1345.38 441.249C1370.12 421.105 1398.17 398.274 1435.82 384.132C1473.59 369.949 1513.03 360.578 1551.17 351.513C1566.32 347.911 1581.99 344.19 1597.03 340.27L1597.28 341.228C1582.23 345.146 1566.56 348.877 1551.4 352.473C1513.29 361.529 1473.88 370.893 1436.17 385.055C1398.67 399.144 1370.69 421.918 1346 442.013C1343 444.461 1339.89 446.992 1336.86 449.425C1332.81 452.686 1328.78 455.939 1324.77 459.184C1292.8 484.994 1261.93 509.911 1227.75 531.273C1206.92 544.417 1184.99 555.736 1162.21 565.104C1131.18 577.884 1098.82 587.191 1065.74 592.855C1019.54 600.728 969 601.314 920.128 601.88L911.32 601.984C895.578 602.183 879.3 602.379 863.361 602.898C803.187 604.841 733.443 610.53 672.409 637.998C661.398 642.961 650.674 648.538 640.288 654.702C587.933 685.981 547.035 733.153 515.257 798.915C495.805 839.074 481.039 882.857 466.764 925.196C459.83 945.764 452.659 967.032 445.128 987.302C436.993 1009.86 427.623 1031.95 417.062 1053.47C402.074 1083.68 383.446 1114.36 355.819 1131.63" fill="url(#paint13_linear_81_446)" fill-opacity="0.7"/>
<path d="M375.58 1124.87C361.134 1133.92 344.367 1138.56 327.326 1138.23C287.599 1137.94 248.841 1121.34 211.357 1105.28C196.241 1098.81 181.963 1092.69 167.613 1087.58C114.751 1068.58 52.7945 1051.71 -5.94694 1070.63C-61.9812 1088.57 -102.456 1129.92 -141.6 1169.91C-144.479 1172.85 -147.457 1175.89 -150.364 1178.84L-151.109 1178.11C-148.204 1175.16 -145.227 1172.12 -142.348 1169.17C-123.121 1149.53 -103.239 1129.22 -81.0543 1111.48C-55.9025 1091.38 -31.4383 1077.68 -6.2643 1069.63C52.7733 1050.61 114.941 1067.53 167.968 1086.59C182.354 1091.71 196.633 1097.84 211.768 1104.31C249.156 1120.33 287.821 1136.9 327.332 1137.18C384.183 1137.58 413.538 1090.35 434.753 1044.1C444.632 1022.29 453.376 999.981 460.951 977.266C467.721 957.574 474.192 936.942 480.449 916.989C494.046 873.624 508.113 828.778 526.968 787.495C557.562 720.354 597.345 671.997 648.591 639.66C658.849 633.228 669.473 627.397 680.407 622.197C707.644 609.266 737.989 600.083 773.177 594.126C801.051 589.406 832.095 586.681 870.875 585.549C887.508 585.069 904.552 584.958 920.585 584.885C925.976 584.864 931.367 584.849 936.759 584.84C982.324 584.736 1029.44 584.629 1073.12 579C1106.71 574.657 1139.81 567.183 1172.01 556.678C1245.46 532.904 1303.73 492.434 1360.07 453.292C1364.58 450.163 1369.01 447.022 1373.69 443.699C1400.07 424.996 1427.34 405.656 1462.79 392.154C1499.07 378.173 1536.78 367.758 1573.26 357.686C1589.62 353.168 1606.54 348.495 1622.82 343.628L1623.12 344.631C1606.83 349.498 1589.9 354.175 1573.54 358.695C1537.09 368.76 1499.39 379.168 1463.16 393.132C1427.84 406.589 1400.62 425.889 1374.3 444.554C1369.61 447.881 1365.17 451.026 1360.67 454.156C1304.26 493.339 1245.93 533.858 1172.33 557.677C1140.07 568.203 1106.9 575.691 1073.25 580.042C1029.51 585.685 982.359 585.792 936.76 585.895C931.37 585.907 925.98 585.922 920.589 585.94C904.563 586.013 887.522 586.127 870.905 586.605C811.332 588.343 742.168 594.043 680.856 623.153C669.958 628.334 659.372 634.145 649.15 640.556C598.082 672.78 558.434 720.986 527.92 787.939C509.092 829.163 495.039 873.975 481.448 917.312C475.188 937.272 468.713 957.906 461.938 977.617C454.352 1000.37 445.594 1022.71 435.701 1044.55C421.356 1075.82 403.296 1107.54 375.575 1124.87" fill="url(#paint14_linear_81_446)" fill-opacity="0.7"/>
<path d="M1648.96 348.011C1630.91 354.105 1612.22 360.005 1594.15 365.711C1559.87 376.531 1524.42 387.722 1490.15 401.193C1457.3 413.971 1430.11 430.775 1403.81 447.028C1397.15 451.146 1390.85 455.038 1384.46 458.869C1354.59 476.778 1322.19 495.607 1287.73 511.981C1254.02 528.264 1218.74 541.081 1182.44 550.235C1149.04 558.54 1115.04 564.221 1080.75 567.225C1040.09 570.807 996.862 570.453 955.065 570.106C946.197 570.033 937.026 569.957 927.999 569.922C912.333 569.865 895.486 569.875 878.442 570.313C822.865 571.761 751.14 577.386 689.297 608.309C678.511 613.708 668.061 619.753 658.005 626.413C608.197 659.559 569.789 708.81 540.578 776.967C522.379 819.343 509.044 865.279 496.149 909.703C490.558 928.965 484.777 948.884 478.75 967.932C470.54 994.104 462.561 1016.24 454.337 1035.62C445.801 1055.84 433.73 1081.5 416.002 1100.71C407.765 1109.87 397.843 1117.35 386.776 1122.76C374.718 1128.38 361.514 1131.11 348.216 1130.73C307.311 1129.94 267.486 1112.1 228.971 1094.84C213.296 1087.82 198.489 1081.19 183.629 1075.65C129.249 1055.24 65.4514 1037.16 4.57003 1057.71C-53.3951 1077.19 -94.5731 1121.97 -134.393 1165.28C-137.219 1168.35 -140.029 1171.4 -142.823 1174.43L-143.631 1173.68C-140.836 1170.66 -138.027 1167.61 -135.203 1164.53C-115.654 1143.27 -95.4396 1121.29 -72.7443 1102.07C-46.9995 1080.27 -21.8232 1065.42 4.22199 1056.67C31.7019 1047.39 61.5149 1045.24 95.3544 1050.09C129.194 1054.95 162.163 1066.41 184.015 1074.62C198.902 1080.16 213.728 1086.81 229.42 1093.84C267.834 1111.05 307.556 1128.84 348.235 1129.62C405.238 1130.72 433.346 1082.51 453.326 1035.2C461.53 1015.85 469.502 993.736 477.702 967.599C483.725 948.562 489.504 928.65 495.092 909.394C507.996 864.937 521.339 818.968 539.566 776.53C553.634 743.71 569.346 716.007 587.603 691.842C597.221 679.069 607.843 667.083 619.366 655.998C631.122 644.732 643.848 634.524 657.397 625.493C667.492 618.811 677.982 612.745 688.808 607.327C715.86 593.801 746.014 584.206 780.989 577.996C809.102 573.004 840.061 570.213 878.419 569.215C895.476 568.776 912.333 568.767 928.008 568.822C937.035 568.864 946.203 568.937 955.074 569.007C996.847 569.353 1040.04 569.711 1080.66 566.132C1114.89 563.134 1148.84 557.464 1182.18 549.173C1259.97 529.926 1324.49 493.545 1383.9 457.935C1390.29 454.103 1396.58 450.215 1403.24 446.101C1429.58 429.822 1456.81 412.985 1489.75 400.178C1524.06 386.698 1559.52 375.504 1593.82 364.676C1611.89 358.973 1630.57 353.075 1648.61 346.982L1648.96 348.011Z" fill="url(#paint15_linear_81_446)" fill-opacity="0.7"/>
<path d="M1674.79 351.393C1653.68 359.347 1631.88 367.088 1610.81 374.574C1579.99 385.518 1548.13 396.834 1517.13 409.247C1487.56 420.992 1461.39 435.116 1436.08 448.774C1426.5 453.943 1417.45 458.826 1408.25 463.574C1367.83 484.436 1335.79 499.113 1304.38 511.178C1268.21 525.28 1230.76 535.865 1192.55 542.785C1158.07 548.906 1123.23 552.784 1088.25 554.395C1051.51 556.154 1012.99 555.363 975.742 554.599C962.528 554.328 948.863 554.048 935.413 553.883C921.886 553.721 904.046 553.592 885.987 554.002C830.874 555.263 759.672 560.887 697.744 593.446C687.069 599.062 676.757 605.342 666.867 612.249C618.305 646.31 581.135 696.593 553.241 765.974C535.667 809.606 523.07 856.771 510.894 902.381C505.963 920.845 500.863 939.937 495.566 958.23C487.919 984.853 480.533 1007.25 472.984 1026.69C465.016 1047.28 453.653 1073.42 436.392 1093.01C428.402 1102.33 418.623 1109.95 407.635 1115.42C395.615 1121.1 382.394 1123.77 369.11 1123.21C327.014 1121.91 286.108 1102.83 246.548 1084.38C230.329 1076.82 215.008 1069.67 199.651 1063.71C143.745 1041.9 78.0992 1022.59 15.0916 1044.79C-44.8038 1065.82 -88.5632 1116.21 -127.173 1160.68C-129.891 1163.81 -132.593 1166.92 -135.279 1170L-136.153 1169.24C-133.463 1166.16 -130.761 1163.05 -128.046 1159.92C-108.178 1137.04 -87.6361 1113.38 -64.4279 1092.67C-38.0925 1069.16 -12.2072 1053.15 14.7088 1043.69C43.0598 1033.71 73.8052 1031.35 108.705 1036.48C143.757 1041.64 177.637 1053.88 200.072 1062.63C215.463 1068.61 230.8 1075.76 247.036 1083.33C286.49 1101.72 327.286 1120.75 369.141 1122.05C426.349 1123.82 453.187 1074.63 471.899 1026.28C479.435 1006.87 486.81 984.505 494.443 957.918C499.733 939.638 504.825 920.555 509.76 902.095C521.951 856.448 534.558 809.248 552.157 765.551C565.556 732.226 580.584 704.095 598.103 679.552C607.384 666.502 617.692 654.214 628.93 642.806C640.389 631.215 652.862 620.672 666.198 611.302C676.128 604.367 686.482 598.062 697.2 592.422C724.06 578.3 754.019 568.295 788.793 561.831C817.096 556.571 847.971 553.715 885.957 552.845C904.034 552.435 921.891 552.57 935.426 552.727C948.883 552.893 962.548 553.173 975.766 553.444C1013 554.207 1051.49 554.997 1088.19 553.24C1123.12 551.632 1157.92 547.759 1192.35 541.647C1275.64 526.814 1345.08 494.864 1407.71 462.547C1416.91 457.804 1425.95 452.923 1435.53 447.757C1460.87 434.082 1487.07 419.94 1516.7 408.173C1547.71 395.753 1579.59 384.432 1610.42 373.485C1631.49 365.997 1653.28 358.261 1674.38 350.311L1674.79 351.393Z" fill="url(#paint16_linear_81_446)" fill-opacity="0.7"/>
<path d="M1700.64 354.775C1672.09 366.649 1642.71 378.198 1614.3 389.367C1591.26 398.425 1567.43 407.792 1544.11 417.308C1519.73 427.202 1496.75 438.081 1474.54 448.601C1459.92 455.524 1446.1 462.068 1432.04 468.286C1391.63 486.159 1355.32 499.921 1321.04 510.373C1282.43 522.305 1242.81 530.662 1202.66 535.34C1167.16 539.321 1131.47 541.402 1095.75 541.574C1064.19 541.826 1031.51 540.685 999.903 539.582C981.206 538.927 961.873 538.25 942.821 537.857C923.588 537.47 907.922 537.421 893.522 537.704C838.83 538.785 768.114 544.399 706.185 578.593C695.62 584.428 685.444 590.942 675.722 598.094C628.373 633.052 592.449 684.373 565.897 754.989C548.952 799.996 537.112 848.514 525.658 895.429C521.375 912.976 516.949 931.123 512.372 948.532C505.193 976.015 498.598 998.012 491.617 1017.75C484.227 1038.71 473.585 1065.32 456.768 1085.28C449.026 1094.76 439.392 1102.52 428.48 1108.05C416.497 1113.8 403.256 1116.43 389.986 1115.69C346.689 1113.85 304.689 1093.54 264.072 1073.9C247.319 1065.8 231.492 1058.15 215.654 1051.77C161.573 1029.9 91.097 1007.88 25.5962 1031.86C-36.2296 1054.44 -80.7136 1108.46 -119.953 1156.11C-122.569 1159.29 -125.172 1162.44 -127.761 1165.58L-128.697 1164.8C-126.107 1161.67 -123.505 1158.52 -120.891 1155.34C-100.71 1130.83 -79.844 1105.48 -56.1246 1083.27C-29.2023 1058.06 -2.60866 1040.87 25.1772 1030.72C40.7023 1025.09 56.9447 1021.69 73.4227 1020.6C89.6614 1019.59 105.962 1020.35 122.036 1022.87C149.636 1027.03 179.528 1035.85 216.106 1050.64C231.982 1057.03 247.827 1064.7 264.599 1072.81C305.105 1092.4 346.989 1112.65 390.036 1114.48C447.48 1116.92 473.044 1066.75 490.466 1017.35C497.435 997.641 504.02 975.676 511.191 948.226C515.765 930.821 520.191 912.682 524.472 895.142C535.936 848.193 547.783 799.637 564.759 754.558C577.482 720.721 591.828 692.162 608.616 667.249C617.559 653.923 627.554 641.335 638.504 629.604C649.665 617.695 661.881 606.821 675.002 597.115C684.766 589.93 694.986 583.387 705.597 577.527C732.256 562.81 762.024 552.391 796.607 545.673C824.67 540.223 856.365 537.216 893.503 536.483C907.921 536.201 923.606 536.247 942.851 536.638C961.91 537.027 981.248 537.703 999.945 538.354C1031.53 539.459 1064.2 540.603 1095.74 540.348C1131.42 540.176 1167.06 538.098 1202.52 534.122C1274.99 525.814 1345.62 505.164 1431.54 467.163C1445.6 460.945 1459.4 454.411 1474.01 447.491C1496.25 436.963 1519.24 426.075 1543.65 416.17C1566.98 406.652 1590.81 397.284 1613.85 388.224C1642.26 377.057 1671.63 365.511 1700.16 353.641L1700.64 354.775Z" fill="url(#paint17_linear_81_446)" fill-opacity="0.7"/>
<path d="M1726.48 358.154C1681.46 378.659 1632.08 400.017 1571.1 425.366C1558.26 430.686 1545.46 436.126 1533.09 441.387C1506.55 452.671 1481.48 463.33 1455.83 472.994C1367.73 506.176 1290.5 523.621 1212.77 527.893C1180.84 529.743 1146.04 530.015 1103.25 528.752C1079.23 527.966 1054.65 526.676 1030.87 525.426C1004.47 524.039 977.167 522.603 950.242 521.835C931.463 521.301 915.839 521.166 901.071 521.409C851.005 522.237 777.209 527.527 714.639 563.744C704.183 569.797 694.145 576.545 684.593 583.944C637.791 620.282 604.102 671.145 578.565 744.009C562.251 790.528 551.189 840.534 540.491 888.893C536.843 905.387 533.069 922.441 529.191 938.843C522.59 966.855 516.576 989.092 510.263 1008.82C503.453 1030.13 493.543 1057.21 477.162 1077.57C469.671 1087.2 460.18 1095.1 449.343 1100.71C437.398 1106.52 424.138 1109.1 410.886 1108.19C366.38 1105.8 323.276 1084.26 281.592 1063.43C264.314 1054.79 247.999 1046.64 231.679 1039.84C176.149 1016.64 103.741 993.31 36.1231 1018.94C-27.632 1043.09 -72.8245 1100.73 -112.696 1151.59C-115.212 1154.8 -117.718 1157.99 -120.213 1161.16L-121.21 1160.38C-118.717 1157.21 -116.213 1154.02 -113.697 1150.81C-93.2025 1124.66 -72.0098 1097.63 -47.7883 1073.91C-20.2831 1046.98 7.01818 1028.61 35.6745 1017.75C51.6193 1011.76 68.35 1008.12 85.3422 1006.94C102.062 1005.84 118.853 1006.62 135.398 1009.27C163.912 1013.66 194.661 1023 232.17 1038.66C248.534 1045.49 264.865 1053.65 282.161 1062.29C323.728 1083.06 366.713 1104.55 410.955 1106.92C437.386 1108.33 458.715 1098.47 476.174 1076.77C492.422 1056.57 502.281 1029.64 509.055 1008.43C515.354 988.73 521.363 966.526 527.956 938.548C531.828 922.157 535.603 905.106 539.251 888.616C549.957 840.221 561.026 790.176 577.366 743.585C589.407 709.23 603.068 680.241 619.133 654.963C637.542 625.997 658.7 602.437 683.813 582.937C693.41 575.502 703.496 568.721 714.003 562.64C740.455 547.328 770.03 536.498 804.418 529.528C832.598 523.816 864.208 520.743 901.049 520.133C915.837 519.889 931.479 520.024 950.278 520.56C977.213 521.326 1004.53 522.77 1030.94 524.152C1054.71 525.402 1079.29 526.693 1103.29 527.48C1146.04 528.742 1180.81 528.469 1212.7 526.621C1290.29 522.358 1367.4 504.938 1455.38 471.802C1481.01 462.147 1506.07 451.49 1532.6 440.216C1544.97 434.954 1557.77 429.512 1570.61 424.188C1631.59 398.844 1680.95 377.494 1725.95 356.994L1726.48 358.154Z" fill="url(#paint18_linear_81_446)" fill-opacity="0.7"/>
<path d="M1752.31 361.532C1717.52 378.76 1671.64 401.166 1625.23 421.669C1578.69 442.237 1536.54 458.772 1496.35 472.232C1452.81 487.024 1408.28 498.7 1363.09 507.172C1316.85 515.826 1269.92 520.266 1222.88 520.439C1170.83 520.588 1118.14 516.579 1067.19 512.703C1031.31 509.974 994.213 507.152 957.646 505.804C881.431 502.995 793.963 505.919 723.081 548.887C607.775 618.784 581.138 753.017 555.372 882.834C547.163 924.195 539.41 963.262 528.898 999.886C522.682 1021.54 513.501 1049.07 497.549 1069.84C490.309 1079.63 480.962 1087.66 470.199 1093.34C458.291 1099.22 445.011 1101.75 431.775 1100.67C386.056 1097.73 341.838 1074.96 299.075 1052.94C281.285 1043.78 264.477 1035.13 247.695 1027.9C190.716 1003.38 116.368 978.731 46.6429 1006.02C-19.0437 1031.73 -64.943 1093.02 -105.439 1147.09C-107.863 1150.33 -110.274 1153.54 -112.672 1156.74L-113.734 1155.94C-111.331 1152.75 -108.921 1149.53 -106.505 1146.29C-85.7014 1118.51 -64.188 1089.79 -39.4638 1064.55C-11.378 1035.89 16.628 1016.34 46.1544 1004.78C62.5181 998.426 79.7368 994.545 97.2438 993.265C114.445 992.077 131.725 992.88 148.742 995.657C178.165 1000.28 209.773 1010.13 248.215 1026.68C265.044 1033.92 281.867 1042.58 299.677 1051.75C342.318 1073.71 386.412 1096.41 431.855 1099.34C458.374 1101.05 479.518 1091.14 496.493 1069.03C512.309 1048.43 521.436 1021.06 527.624 999.522C538.12 962.952 545.869 923.911 554.072 882.578C566.774 818.573 579.913 752.392 604.321 693.503C617.515 661.669 632.717 634.913 650.792 611.708C660.479 599.243 671.237 587.65 682.945 577.061C695.147 566.077 708.357 556.266 722.399 547.76C754.576 528.255 791.905 515.598 836.511 509.074C880.303 502.666 924.281 503.258 957.702 504.489C994.295 505.837 1031.41 508.658 1067.3 511.39C1118.23 515.263 1170.88 519.27 1222.88 519.121C1416.31 518.573 1583.41 443.707 1751.73 360.353L1752.31 361.532Z" fill="url(#paint19_linear_81_446)" fill-opacity="0.7"/>
</g>
</g>
<defs>
<linearGradient id="paint0_linear_81_446" x1="445.272" y1="676.52" x2="629.861" y2="971.862" gradientUnits="userSpaceOnUse">
<stop stop-color="#2431DD"/>
<stop offset="1" stop-color="#373737"/>
</linearGradient>
<linearGradient id="paint1_linear_81_446" x1="468.662" y1="686.774" x2="638.165" y2="957.978" gradientUnits="userSpaceOnUse">
<stop stop-color="#2431DD"/>
<stop offset="1" stop-color="#373737"/>
</linearGradient>
<linearGradient id="paint2_linear_81_446" x1="492.058" y1="696.981" x2="646.607" y2="944.259" gradientUnits="userSpaceOnUse">
<stop stop-color="#2431DD"/>
<stop offset="1" stop-color="#373737"/>
</linearGradient>
<linearGradient id="paint3_linear_81_446" x1="515.421" y1="707.18" x2="655.131" y2="930.716" gradientUnits="userSpaceOnUse">
<stop stop-color="#2431DD"/>
<stop offset="1" stop-color="#373737"/>
</linearGradient>
<linearGradient id="paint4_linear_81_446" x1="538.799" y1="717.396" x2="663.787" y2="917.377" gradientUnits="userSpaceOnUse">
<stop stop-color="#2431DD"/>
<stop offset="1" stop-color="#373737"/>
</linearGradient>
<linearGradient id="paint5_linear_81_446" x1="562.204" y1="727.613" x2="672.606" y2="904.255" gradientUnits="userSpaceOnUse">
<stop stop-color="#2431DD"/>
<stop offset="1" stop-color="#373737"/>
</linearGradient>
<linearGradient id="paint6_linear_81_446" x1="575.71" y1="721.992" x2="681.623" y2="891.452" gradientUnits="userSpaceOnUse">
<stop stop-color="#2431DD"/>
<stop offset="1" stop-color="#373737"/>
</linearGradient>
<linearGradient id="paint7_linear_81_446" x1="588.026" y1="714.514" x2="695.424" y2="886.351" gradientUnits="userSpaceOnUse">
<stop stop-color="#2431DD"/>
<stop offset="1" stop-color="#373737"/>
</linearGradient>
<linearGradient id="paint8_linear_81_446" x1="600.353" y1="707.041" x2="710.1" y2="882.636" gradientUnits="userSpaceOnUse">
<stop stop-color="#2431DD"/>
<stop offset="1" stop-color="#373737"/>
</linearGradient>
<linearGradient id="paint9_linear_81_446" x1="612.132" y1="698.694" x2="724.785" y2="878.94" gradientUnits="userSpaceOnUse">
<stop stop-color="#2431DD"/>
<stop offset="1" stop-color="#373737"/>
</linearGradient>
<linearGradient id="paint10_linear_81_446" x1="622.816" y1="688.63" x2="739.46" y2="875.261" gradientUnits="userSpaceOnUse">
<stop stop-color="#2431DD"/>
<stop offset="1" stop-color="#373737"/>
</linearGradient>
<linearGradient id="paint11_linear_81_446" x1="631.612" y1="675.537" x2="754.14" y2="871.583" gradientUnits="userSpaceOnUse">
<stop stop-color="#2431DD"/>
<stop offset="1" stop-color="#373737"/>
</linearGradient>
<linearGradient id="paint12_linear_81_446" x1="640.114" y1="661.987" x2="768.843" y2="867.953" gradientUnits="userSpaceOnUse">
<stop stop-color="#2431DD"/>
<stop offset="1" stop-color="#373737"/>
</linearGradient>
<linearGradient id="paint13_linear_81_446" x1="648.534" y1="648.307" x2="783.534" y2="864.307" gradientUnits="userSpaceOnUse">
<stop stop-color="#2431DD"/>
<stop offset="1" stop-color="#373737"/>
</linearGradient>
<linearGradient id="paint14_linear_81_446" x1="656.868" y1="634.487" x2="798.251" y2="860.701" gradientUnits="userSpaceOnUse">
<stop stop-color="#2431DD"/>
<stop offset="1" stop-color="#373737"/>
</linearGradient>
<linearGradient id="paint15_linear_81_446" x1="665.122" y1="620.544" x2="818.994" y2="866.738" gradientUnits="userSpaceOnUse">
<stop stop-color="#2431DD"/>
<stop offset="1" stop-color="#373737"/>
</linearGradient>
<linearGradient id="paint16_linear_81_446" x1="673.275" y1="606.433" x2="839.976" y2="873.154" gradientUnits="userSpaceOnUse">
<stop stop-color="#2431DD"/>
<stop offset="1" stop-color="#373737"/>
</linearGradient>
<linearGradient id="paint17_linear_81_446" x1="681.347" y1="592.201" x2="860.955" y2="879.575" gradientUnits="userSpaceOnUse">
<stop stop-color="#2431DD"/>
<stop offset="1" stop-color="#373737"/>
</linearGradient>
<linearGradient id="paint18_linear_81_446" x1="689.356" y1="577.86" x2="881.938" y2="885.991" gradientUnits="userSpaceOnUse">
<stop stop-color="#2431DD"/>
<stop offset="1" stop-color="#373737"/>
</linearGradient>
<linearGradient id="paint19_linear_81_446" x1="697.294" y1="563.421" x2="902.911" y2="892.408" gradientUnits="userSpaceOnUse">
<stop stop-color="#2431DD"/>
<stop offset="1" stop-color="#373737"/>
</linearGradient>
</defs>
</svg>
