<svg width="70" height="70" viewBox="0 0 70 70" fill="none" xmlns="http://www.w3.org/2000/svg">
<path d="M43.489 43.231C43.4979 43.3018 43.5008 43.3578 43.5038 43.4049H26.5053C26.5083 43.3548 26.5112 43.2929 26.52 43.2163C27.0595 38.9622 30.7064 35.7517 35.0015 35.7517C39.2967 35.7517 42.9555 38.9681 43.4861 43.2311L43.489 43.231ZM70.0014 32.0401V37.9629C70.0014 39.3278 68.4714 39.8231 67.814 39.9735L61.3517 41.4417C61.0274 41.5154 60.7709 41.7601 60.6825 42.0814C60.0988 44.204 59.2527 46.2471 58.1648 48.1575C57.9997 48.4464 58.0086 48.8001 58.1855 49.0802L61.7173 54.6876C62.077 55.2595 62.8081 56.6922 61.8441 57.6563L57.6548 61.8426C56.6879 62.8096 55.2609 62.0785 54.689 61.7188L49.0788 58.1899C48.7987 58.013 48.4449 58.0071 48.156 58.1693C46.2338 59.2601 44.1908 60.1062 42.077 60.6869C41.7585 60.7754 41.5139 61.0319 41.4402 61.3532L39.9691 67.8155C39.8187 68.4729 39.3264 70 37.9614 70H32.0386C30.6707 70 30.1784 68.4729 30.0279 67.8155L28.5598 61.3532C28.4861 61.0289 28.2414 60.7724 27.9201 60.684C25.8062 60.1032 23.7632 59.2542 21.844 58.1634C21.7054 58.0838 21.5521 58.0455 21.3988 58.0455C21.2308 58.0455 21.0657 58.0926 20.9183 58.184L15.308 61.7159C14.739 62.0755 13.3092 62.8067 12.3393 61.8397L8.15589 57.6563C7.18895 56.6894 7.92004 55.2595 8.27971 54.6876L11.8086 49.0773C11.9855 48.7972 11.9914 48.4405 11.8292 48.1545C10.7443 46.253 9.89823 44.2099 9.31159 42.0784C9.22315 41.7571 8.96666 41.5124 8.64237 41.4387L2.18306 39.9735C1.52563 39.8231 -0.00146484 39.3308 -0.00146484 37.9629V32.0401C-0.00146484 30.678 1.52563 30.1828 2.18306 30.0324L8.64531 28.5613C8.96961 28.4876 9.22314 28.2429 9.31158 27.9245C9.89236 25.8136 10.7414 23.7677 11.8292 21.8455C11.9914 21.5566 11.9855 21.2028 11.8086 20.9227L8.2797 15.3124C7.92004 14.7435 7.18891 13.3137 8.15589 12.3496L12.3393 8.1603C13.3033 7.1963 14.7361 7.9274 15.308 8.28412L20.9183 11.816C21.1983 11.9929 21.5551 11.9987 21.8411 11.8366C23.7662 10.7429 25.8092 9.89381 27.9171 9.31894C28.2385 9.2305 28.4832 8.97402 28.5569 8.64972L30.025 2.18747C30.1754 1.53004 30.6707 0 32.0357 0H37.9585C39.3205 0 39.8157 1.53004 39.9661 2.18747L41.4372 8.64972C41.5109 8.97402 41.7556 9.2305 42.077 9.31599C44.1908 9.89382 46.2338 10.7399 48.1472 11.8337C48.4361 11.9987 48.7898 11.9899 49.07 11.813L54.6832 8.28117C55.2521 7.9215 56.6819 7.19038 57.646 8.15735L61.8353 12.3466C62.7993 13.3047 62.0682 14.7405 61.7085 15.3095L58.1767 20.9197C57.9998 21.1998 57.9939 21.5565 58.156 21.8425C59.2468 23.7588 60.0959 25.8019 60.6766 27.9186C60.7651 28.237 61.0216 28.4817 61.3429 28.5554L67.7993 30.0265C68.4567 30.1768 69.9867 30.6721 69.9867 32.0342L70.0014 32.0401ZM56.44 35.0029C56.44 29.2778 54.2112 23.8943 50.1605 19.8498C46.1127 15.802 40.7326 13.5703 35.0073 13.5703C29.2821 13.5703 23.8986 15.7991 19.8481 19.8498C11.4934 28.2045 11.4934 41.8014 19.8481 50.1622C24.0285 54.3397 29.5175 56.4269 35.0073 56.4269C40.4967 56.4269 45.9831 54.3367 50.1605 50.1592C54.2083 46.1115 56.44 40.7283 56.44 35V35.0029ZM47.9788 35.0059C47.9788 35.5012 48.3798 35.9051 48.878 35.9051H54.4941C54.5384 35.9051 54.5796 35.9021 54.6209 35.8962C54.4028 40.8078 52.3863 45.3951 48.8898 48.8917C45.2872 52.4942 40.6233 54.3988 35.8943 54.611C35.9002 54.5727 35.9031 54.5343 35.9031 54.496V48.8799C35.9031 48.3846 35.5022 47.9807 35.004 47.9807C34.5087 47.9807 34.1048 48.3816 34.1048 48.8799V54.496C34.1048 54.5343 34.1078 54.5727 34.1137 54.611C29.3878 54.3987 24.7212 52.4913 21.1182 48.8917C17.5186 45.2891 15.6111 40.6253 15.3989 35.8962C15.4372 35.9021 15.4755 35.9051 15.5139 35.9051H21.13C21.6253 35.9051 22.0292 35.5041 22.0292 35.0059C22.0292 34.5106 21.6282 34.1067 21.13 34.1067H15.5139C15.4755 34.1067 15.4372 34.1097 15.3989 34.1156C15.6112 29.3868 17.5186 24.7231 21.1182 21.1201C24.6176 17.6207 29.205 15.6042 34.1137 15.389C34.1078 15.4302 34.1048 15.4745 34.1048 15.5157V21.1319C34.1048 21.6272 34.5057 22.031 35.004 22.031C35.4993 22.031 35.9031 21.6301 35.9031 21.1319V15.5157C35.9031 15.4715 35.9002 15.4302 35.8943 15.386C40.8058 15.6012 45.3932 17.6177 48.8898 21.1172C52.3891 24.6166 54.4057 29.2009 54.6209 34.1126C54.5796 34.1067 54.5354 34.1038 54.4941 34.1038H48.878C48.3827 34.1038 47.9788 34.5047 47.9788 35.0029V35.0059ZM45.2754 43.0127C44.7831 39.0504 42.065 35.837 38.4712 34.5576C39.7861 33.5287 40.6322 31.9279 40.6322 30.1325C40.6322 27.031 38.1086 24.5075 35.0072 24.5075C31.9059 24.5075 29.3852 27.0311 29.3852 30.1325C29.3852 31.9279 30.2313 33.5257 31.5432 34.5576C27.9583 35.8371 25.2402 39.0417 24.739 42.9953C24.7036 43.2695 24.6034 44.1008 25.1252 44.6905C25.3316 44.9234 25.7119 45.2035 26.3457 45.2035H43.6597C44.2965 45.2035 44.6768 44.9234 44.8832 44.6905C45.234 44.2925 45.3607 43.7441 45.2694 43.013L45.2754 43.0127ZM35.0075 33.9591C37.1184 33.9591 38.8342 32.2433 38.8342 30.1354C38.8342 28.0275 37.1155 26.3088 35.0075 26.3088C32.8967 26.3088 31.1838 28.0275 31.1838 30.1354C31.1838 32.2463 32.8996 33.9591 35.0075 33.9591Z" fill="white"/>
</svg>
