<svg width="60" height="70" viewBox="0 0 60 70" fill="none" xmlns="http://www.w3.org/2000/svg">
<path d="M41.3225 58.8384C41.3225 60.5816 39.904 62.0002 38.1607 62.0002C36.4175 62.0002 34.999 60.5816 34.999 58.8384C34.999 57.0951 36.4175 55.6766 38.1607 55.6766C39.904 55.6766 41.3225 57.0951 41.3225 58.8384ZM26.4058 42.7395H33.6077C34.9135 42.7395 35.9765 41.6765 35.9765 40.3708V39.3487H32.261L30.8459 41.574C30.6647 41.8577 30.3502 42.032 30.0118 42.032C29.6735 42.032 29.359 41.8611 29.1778 41.574L27.7593 39.3453H24.037V40.3674C24.037 41.6731 25.1 42.7361 26.4057 42.7361L26.4058 42.7395ZM21.8495 55.6804C20.1062 55.6804 18.6877 57.0989 18.6877 58.8422C18.6877 60.5854 20.1062 62.0039 21.8495 62.0039C23.5927 62.0039 25.0112 60.5854 25.0112 58.8422C25.0112 57.0989 23.5927 55.6804 21.8495 55.6804ZM35.0021 21.9679V17.8081L30.3296 19.4215C30.2271 19.4557 30.1177 19.4762 30.0083 19.4762C29.8989 19.4762 29.7895 19.4591 29.687 19.4215L22.4577 16.9262V20.775C25.1067 22.2242 27.5815 22.9489 30.0083 22.9899C31.6388 22.9625 33.2897 22.6242 35.0021 21.9679ZM30.0083 39.2052L26.3577 33.473C26.2244 33.2611 26.0159 33.1107 25.7732 33.0492C18.3765 31.1316 13.2121 24.4459 13.2121 16.7928C13.2121 7.53318 20.7456 0 30.0084 0C39.268 0 46.8012 7.53353 46.8012 16.7928C46.8012 24.4459 41.6365 31.132 34.2401 33.0492C33.9974 33.1107 33.7889 33.2645 33.6556 33.4765L30.0118 39.2086L30.0083 39.2052ZM29.9912 24.9658H30.0049H30.0185C31.6592 24.9419 33.3102 24.6445 34.9953 24.0703V24.4634L34.1544 26.022C33.8947 26.5039 34.0724 27.1021 34.5544 27.3618C34.7048 27.4439 34.8654 27.4815 35.0226 27.4815C35.3747 27.4815 35.7131 27.2935 35.8908 26.9619L35.9831 26.7876L36.0788 26.9619C36.2566 27.2935 36.5984 27.478 36.947 27.478C37.1077 27.478 37.2684 27.4404 37.4187 27.3584C37.8973 27.0986 38.075 26.497 37.8152 26.0185L36.971 24.4599V23.2704C37.6478 22.9594 38.3348 22.6039 39.0287 22.2039C39.3363 22.0262 39.5243 21.7015 39.5243 21.3494V16.2428L43.274 14.9473C43.6705 14.8106 43.9406 14.4346 43.9406 14.0142C43.9406 13.5937 43.6739 13.2177 43.274 13.081L30.3226 8.6067C30.1141 8.53492 29.8851 8.53492 29.6766 8.6067L16.7217 13.081C16.3252 13.2177 16.0552 13.5937 16.0552 14.0142C16.0552 14.4346 16.3218 14.8106 16.7217 14.9473L20.4714 16.2428V21.3528C20.4714 21.7049 20.6594 22.033 20.9671 22.2073C24.1083 24.0189 27.0581 24.9179 29.9843 24.9623L29.9912 24.9658ZM33.1666 16.3521L29.6392 14.9336C29.1333 14.7285 28.8872 14.1543 29.0888 13.6483C29.2939 13.1425 29.8682 12.8964 30.3741 13.098L36.014 15.3642L39.9277 14.014L30.0048 10.5856L20.0784 14.014L30.0048 17.439L33.1632 16.3486L33.1666 16.3521ZM57.8557 45.9423C59.6024 52.0094 60.2244 57.5164 59.6502 61.8741C59.1444 65.7194 57.719 68.4198 55.6374 69.4828C52.2228 71.226 47.1742 68.5052 42.0438 62.192C42.8231 61.293 43.2948 60.1206 43.2948 58.8388C43.2948 56.0052 40.991 53.7014 38.1574 53.7014C35.3237 53.7014 33.02 56.0052 33.02 58.8388C33.02 59.0405 33.0336 59.2388 33.0541 59.4336H26.946C26.9699 59.2388 26.9801 59.0405 26.9801 58.8388C26.9801 56.0052 24.6763 53.7014 21.8427 53.7014C19.0091 53.7014 16.7053 56.0052 16.7053 58.8388C16.7053 60.1206 17.177 61.293 17.9563 62.192C12.8257 68.5052 7.78055 71.2258 4.36266 69.4828C2.28104 68.4198 0.855695 65.716 0.349838 61.8741C-0.224404 57.5159 0.39769 52.0098 2.14095 45.9528C3.67567 40.8598 4.89932 38.1526 6.23585 36.8944C7.39116 35.8109 8.69006 35.8143 10.8366 35.8177C11.3288 35.8211 11.8381 35.8211 12.3987 35.8075C12.8362 35.7972 14.1522 35.7904 16.3056 35.7904C18.9307 35.7904 19.7202 36.5492 21.4464 38.2069C21.6412 38.3915 21.8395 38.5829 22.048 38.7812V40.3638C22.048 42.7599 23.9964 44.7081 26.3924 44.7081H33.5943C35.9905 44.7081 37.9387 42.7598 37.9387 40.3638V38.7812C38.1472 38.5829 38.3489 38.3915 38.5403 38.2069C40.2665 36.5458 41.056 35.7904 43.6811 35.7904C45.8345 35.7904 47.1505 35.7972 47.5915 35.8075C48.1487 35.8211 48.658 35.8177 49.1501 35.8177C51.2967 35.8109 52.5956 35.8075 53.7509 36.8944C55.0873 38.1489 56.3145 40.8594 57.8424 45.9423H57.8557ZM19.3743 47.1489C19.3743 45.6312 18.1403 44.3973 16.6228 44.3973H15.5528V43.3274C15.5528 41.8098 14.3189 40.5759 12.8013 40.5759C11.2837 40.5759 10.0498 41.8099 10.0498 43.3274V44.3973H8.97644C7.45878 44.3973 6.22489 45.6313 6.22489 47.1489C6.22489 48.6665 7.45886 49.9004 8.97644 49.9004H10.0498V50.9738C10.0498 52.4914 11.2837 53.7253 12.8013 53.7253C14.3189 53.7253 15.5528 52.4913 15.5528 50.9738V49.9004H16.6228C18.1404 49.9004 19.3743 48.6665 19.3743 47.1489ZM43.5778 42.4422C43.5778 43.9598 44.8117 45.1937 46.3293 45.1937C47.8469 45.1937 49.0809 43.9597 49.0809 42.4422C49.0809 40.9246 47.8469 39.694 46.3293 39.694C44.8117 39.694 43.5778 40.928 43.5778 42.4422ZM44.3776 47.1489C44.3776 45.6312 43.1436 44.3973 41.6261 44.3973C40.1085 44.3973 38.8745 45.6313 38.8745 47.1489C38.8745 48.6665 40.1085 49.9004 41.6261 49.9004C43.1436 49.9004 44.3776 48.6665 44.3776 47.1489ZM49.0843 51.8556C49.0843 50.338 47.8504 49.1041 46.3328 49.1041C44.8152 49.1041 43.5812 50.338 43.5812 51.8556C43.5812 53.3732 44.8152 54.6072 46.3328 54.6072C47.8504 54.6072 49.0843 53.3732 49.0843 51.8556ZM53.7911 47.1489C53.7911 45.6312 52.5571 44.3973 51.0395 44.3973C49.5219 44.3973 48.288 45.6313 48.288 47.1489C48.288 48.6665 49.5219 49.9004 51.0395 49.9004C52.5572 49.9004 53.7911 48.6665 53.7911 47.1489ZM36.9773 21.0825C37.1687 20.9833 37.3601 20.8842 37.5549 20.7783V16.9295L36.9773 17.1277V21.0825Z" fill="white"/>
</svg>
