<svg width="70" height="70" viewBox="0 0 70 70" fill="none" xmlns="http://www.w3.org/2000/svg">
<path fill-rule="evenodd" clip-rule="evenodd" d="M19.673 34.1862H19.7186C20.1622 34.1862 20.5207 34.5447 20.5207 34.9883V35.0126C20.5207 35.2253 20.4386 35.4288 20.2898 35.5777L20.2655 35.602C20.0285 35.8268 19.6791 35.8906 19.3783 35.763C19.0776 35.6354 18.8801 35.3407 18.874 35.0126V34.9883V34.9913C18.874 34.5477 19.2355 34.1893 19.676 34.1893L19.673 34.1862ZM37.9748 32.7522V32.7552C37.9779 31.9653 37.6649 31.2118 37.1089 30.6528V30.6498C36.1033 29.6441 34.5265 29.4892 33.3447 30.2761C32.1628 31.066 31.701 32.579 32.2448 33.8945C32.7887 35.207 34.1832 35.9544 35.5777 35.678C36.9723 35.4015 37.9779 34.1801 37.9779 32.7583L37.9748 32.7522ZM34.9883 10.4581H35.0369C35.4775 10.4581 35.836 10.8166 35.836 11.2601V11.2844C35.836 11.4941 35.7539 11.6976 35.602 11.8465L35.5777 11.8738C35.3407 12.0987 34.9913 12.1594 34.6906 12.0318C34.3898 11.9042 34.1923 11.6095 34.1893 11.2844V11.2601C34.1893 10.8166 34.5478 10.4581 34.9913 10.4581L34.9883 10.4581ZM34.9883 18.8705H35.0369C35.4775 18.8705 35.836 19.232 35.836 19.6725V19.6968C35.836 19.9095 35.7539 20.1131 35.602 20.2619L35.5807 20.2862C35.2678 20.5992 34.7604 20.5992 34.4475 20.2862L34.4232 20.2619C34.2744 20.1131 34.1893 19.9095 34.1893 19.6968V19.6725C34.1893 19.232 34.5478 18.8705 34.9913 18.8705H34.9883ZM34.9883 16.0602H35.0369C35.2466 16.0602 35.4532 16.1452 35.602 16.2941C35.7509 16.446 35.836 16.6496 35.836 16.8622V16.8865V16.8835C35.839 17.0962 35.754 17.2997 35.602 17.4516L35.5808 17.4759C35.2678 17.7858 34.7605 17.7858 34.4476 17.4759L34.4233 17.4516C34.2744 17.2997 34.1893 17.0962 34.1893 16.8835V16.8592V16.8622C34.1893 16.4187 34.5478 16.0602 34.9914 16.0602L34.9883 16.0602ZM34.9883 13.2711H35.0369C35.2466 13.2711 35.4532 13.3562 35.602 13.5051C35.7509 13.657 35.836 13.8605 35.836 14.0732V14.0975V14.0945C35.836 14.3072 35.754 14.5107 35.602 14.6596L35.5777 14.6869C35.3408 14.9087 34.9914 14.9695 34.6906 14.8419C34.3898 14.7143 34.1924 14.4226 34.1893 14.0945V14.0702V14.0732C34.1893 13.6296 34.5478 13.2712 34.9914 13.2712L34.9883 13.2711ZM57.1945 15.7351C57.2067 16.9109 56.5049 17.9803 55.4203 18.4361C54.3357 18.8949 53.0839 18.6548 52.2454 17.8254C51.4099 16.996 51.1547 15.7443 51.6044 14.6566C52.051 13.5659 53.1143 12.855 54.2901 12.855C55.8851 12.8519 57.1824 14.1401 57.1945 15.7351ZM18.6403 15.7351C18.6494 16.9109 17.9507 17.9803 16.8661 18.4361C15.7815 18.8949 14.5267 18.6548 13.6912 17.8254C12.8527 16.996 12.6005 15.7443 13.0471 14.6566C13.4968 13.5659 14.5571 12.855 15.7359 12.855C17.3309 12.8519 18.6282 14.1401 18.6403 15.7351ZM57.1945 54.2652C57.2067 55.444 56.5049 56.5104 55.4203 56.9692C54.3357 57.428 53.0839 57.1849 52.2454 56.3586C51.4099 55.5291 51.1547 54.2774 51.6044 53.1898C52.051 52.0991 53.1143 51.3881 54.2901 51.3881C55.8851 51.3851 57.1824 52.6702 57.1945 54.2652ZM49.9546 49.155H50.0032C50.2158 49.155 50.4194 49.2401 50.5683 49.389C50.7202 49.5409 50.8022 49.7444 50.8022 49.9571V49.9814C50.8052 50.1941 50.7202 50.3976 50.5713 50.5465L50.547 50.5708C50.31 50.7926 49.9606 50.8564 49.6599 50.7288C49.3591 50.6012 49.1616 50.3065 49.1586 49.9814V49.9571C49.1586 49.5135 49.5171 49.1551 49.9606 49.1551L49.9546 49.155ZM47.9797 47.1802H48.0253C48.4689 47.1802 48.8273 47.5387 48.8273 47.9822V48.0065V48.0035C48.8304 48.204 48.7544 48.3984 48.6177 48.5443L48.5721 48.5959C48.2592 48.9089 47.7518 48.9089 47.4389 48.5959L47.4176 48.5716C47.2657 48.4197 47.1807 48.2162 47.1837 48.0035V47.9792V47.9822C47.1837 47.5386 47.5422 47.1802 47.9827 47.1802H47.9797ZM46.0049 45.2053H46.0504C46.494 45.2053 46.8525 45.5638 46.8525 46.0074V46.0286C46.8525 46.2413 46.7705 46.4449 46.6185 46.5968L46.5942 46.6211L46.5973 46.6181C46.2843 46.931 45.777 46.931 45.4641 46.6181L45.4398 46.5938V46.5968C45.2909 46.4449 45.2058 46.2413 45.2058 46.0286V46.0074C45.2058 45.5638 45.5643 45.2053 46.0079 45.2053H46.0049ZM39.324 65.6763C39.3209 67.4263 38.2697 69.0001 36.6534 69.6715C35.0401 70.3399 33.1808 69.9693 31.9442 68.7327C30.7077 67.4962 30.3401 65.6368 31.0085 64.0236C31.6769 62.4073 33.2537 61.356 35.0006 61.356C36.146 61.356 37.2458 61.8087 38.057 62.6199C38.8683 63.4311 39.324 64.5309 39.324 65.6763ZM34.9915 49.4979H35.0371V49.5009C35.2467 49.5009 35.4533 49.5829 35.6022 49.7348C35.7511 49.8837 35.8361 50.0873 35.8361 50.2999V50.3242C35.8392 50.5369 35.7541 50.7405 35.6022 50.8924L35.5809 50.9167V50.9137C35.268 51.2266 34.7606 51.2266 34.4477 50.9137L34.4234 50.8893V50.8924C34.2745 50.7405 34.1895 50.5369 34.1895 50.3242V50.2999C34.1895 49.8594 34.548 49.5009 34.9915 49.5009L34.9915 49.4979ZM34.9915 57.9103H35.0371V57.9133C35.2467 57.9133 35.4533 57.9984 35.6022 58.1472C35.7511 58.2961 35.8361 58.5027 35.8361 58.7123V58.7366C35.8392 58.9493 35.7541 59.1529 35.6022 59.3048L35.5809 59.3291V59.326C35.268 59.639 34.7606 59.639 34.4477 59.326L34.4234 59.3017V59.3048C34.2745 59.1529 34.1895 58.9493 34.1895 58.7366V58.7123C34.1895 58.2718 34.548 57.9133 34.9915 57.9133L34.9915 57.9103ZM34.9915 55.0969H35.0371V55.0999C35.4776 55.0999 35.8361 55.4584 35.8361 55.902V55.9263C35.8361 56.1359 35.7541 56.3395 35.6022 56.4883L35.5779 56.5157C35.3409 56.7375 34.9915 56.8013 34.6907 56.6737C34.3899 56.5461 34.1925 56.2514 34.1894 55.9263V55.902C34.1894 55.4584 34.5479 55.0999 34.9915 55.0999L34.9915 55.0969ZM34.9915 52.3079H35.0371V52.3109C35.4776 52.3109 35.8361 52.6694 35.8361 53.113V53.1373C35.8361 53.3499 35.7541 53.5535 35.6022 53.7024L35.5809 53.7236V53.7267C35.432 53.8755 35.2254 53.9606 35.0128 53.9606C34.8001 53.9606 34.5965 53.8755 34.4477 53.7267L34.4234 53.7054V53.7024C34.2745 53.5535 34.1894 53.3499 34.1894 53.1373V53.113C34.1894 52.6694 34.5479 52.3109 34.9915 52.3109L34.9915 52.3079ZM18.6397 54.2645C18.6488 55.4402 17.95 56.5097 16.8654 56.9654C15.7808 57.4242 14.5261 57.1842 13.6906 56.3547C12.8521 55.5253 12.5999 54.2736 13.0465 53.1859C13.4961 52.0953 14.5564 51.3843 15.7352 51.3843C17.3303 51.3813 18.6276 52.6694 18.6397 54.2645ZM20.0464 49.1542H20.092C20.3046 49.1542 20.5082 49.2393 20.6571 49.3882C20.809 49.5401 20.894 49.7436 20.894 49.9563V49.9806C20.894 50.1903 20.809 50.3969 20.6601 50.5457L20.6358 50.57C20.3988 50.7918 20.0494 50.8556 19.7487 50.728C19.4479 50.6004 19.2534 50.3057 19.2474 49.9806V49.9563C19.2474 49.5127 19.6089 49.1543 20.0494 49.1543L20.0464 49.1542ZM22.0212 47.1794H22.0668C22.5104 47.1794 22.8688 47.5379 22.8688 47.9814V48.0057V48.0027C22.8688 48.2154 22.7838 48.4189 22.6349 48.5709L22.6106 48.5952C22.3736 48.8169 22.0273 48.8807 21.7235 48.7531C21.4227 48.6255 21.2252 48.3308 21.2222 48.0057V47.9814C21.2222 47.5379 21.5807 47.1794 22.0242 47.1794L22.0212 47.1794ZM23.9961 45.2046H24.0416C24.4852 45.2046 24.8437 45.5631 24.8437 46.0066V46.0279C24.8437 46.2405 24.7616 46.4441 24.6097 46.596L24.5854 46.6203L24.5885 46.6173C24.3485 46.8421 24.0021 46.9059 23.7013 46.7783C23.4006 46.6507 23.2031 46.356 23.197 46.0309V46.0066C23.197 45.5661 23.5555 45.2046 23.999 45.2046H23.9961ZM45.7613 34.9994C45.7643 37.5454 44.862 40.0124 43.2123 41.9538C42.3768 39.344 40.3533 37.2871 37.7618 36.4061C38.8161 35.6071 39.4753 34.3918 39.5665 33.0701C39.6576 31.7516 39.1745 30.4542 38.2358 29.5185C36.4493 27.732 33.554 27.732 31.7675 29.5215C29.981 31.308 29.981 34.2064 31.7675 35.9929C31.9164 36.1417 32.0744 36.2784 32.2445 36.406C29.6469 37.2871 27.6234 39.3439 26.791 41.9537C24.5184 39.2741 23.6981 35.6495 24.5974 32.2495C25.4937 28.8528 27.9941 26.1063 31.2966 24.8971C34.5961 23.6849 38.2784 24.1649 41.1619 26.1761C44.0451 28.1904 45.7613 31.484 45.7613 34.9994ZM28.1066 43.257C32.0988 46.593 37.9081 46.593 41.8996 43.257C41.2677 39.9484 38.3723 37.5513 35.003 37.5513C31.6306 37.5513 28.7355 39.9484 28.1066 43.257ZM49.8842 19.2892H49.9329C50.3734 19.2892 50.7319 19.6477 50.7349 20.0882V20.1125C50.7349 20.3251 50.6498 20.5287 50.501 20.6806L50.4767 20.7049V20.7019C50.2397 20.9267 49.8903 20.9905 49.5895 20.8629C49.2887 20.7353 49.0913 20.4406 49.0882 20.1155V20.0912C49.0882 19.6476 49.4467 19.2892 49.8872 19.2892L49.8842 19.2892ZM47.9124 21.264H47.958C48.1707 21.264 48.3742 21.3491 48.5231 21.4979C48.675 21.6498 48.7601 21.8534 48.7601 22.0661V22.0904C48.7601 22.2879 48.6841 22.4823 48.5505 22.6281L48.5049 22.6798H48.5018C48.1889 22.9927 47.6815 22.9927 47.3686 22.6798L47.3443 22.6555H47.3474C47.1955 22.5066 47.1134 22.3031 47.1134 22.0904V22.0661C47.1134 21.6225 47.4719 21.264 47.9155 21.264L47.9124 21.264ZM45.9376 23.2388L45.9346 23.2419C45.494 23.2419 45.1355 23.6004 45.1325 24.0409V24.0652C45.1325 24.2779 45.2176 24.4814 45.3665 24.6333L45.3908 24.6576V24.6546C45.7037 24.9675 46.2111 24.9675 46.524 24.6546L46.5695 24.603V24.606C46.7063 24.4571 46.7792 24.2657 46.7792 24.0652V24.0409C46.7792 23.6004 46.4207 23.2419 45.9771 23.2419L45.9376 23.2388ZM39.3235 4.32333C39.3235 6.07029 38.2722 7.64707 36.656 8.31548C35.0427 8.98389 33.1834 8.61322 31.9468 7.37975C30.7103 6.14324 30.3396 4.28382 31.008 2.67056C31.6764 1.05427 33.2532 0 35.0002 0C36.1456 0 37.2453 0.455728 38.0566 1.26691C38.8678 2.07813 39.3235 3.1779 39.3235 4.32333ZM70.0003 34.9996C70.0003 36.7495 68.9491 38.3233 67.3328 38.9947C65.7165 39.6631 63.8571 39.2925 62.6206 38.056C61.3841 36.8225 61.0134 34.9631 61.6849 33.3468C62.3533 31.7305 63.93 30.6762 65.677 30.6762C68.065 30.6793 70.0003 32.6116 70.0003 34.9996ZM58.7164 34.1853H58.765C59.2056 34.1853 59.564 34.5438 59.564 34.9873V35.0117C59.564 35.2243 59.482 35.4279 59.3301 35.5767L59.3058 35.6011H59.3088C58.9959 35.914 58.4885 35.914 58.1756 35.6011L58.1543 35.5767H58.1513C58.0024 35.4279 57.9174 35.2243 57.9174 35.0117V34.9873C57.9174 34.5438 58.2759 34.1853 58.7194 34.1853H58.7164ZM55.9061 34.1853H55.9516C56.3952 34.1853 56.7537 34.5438 56.7537 34.9873V35.0117C56.7537 35.2122 56.6777 35.4036 56.5441 35.5524L56.4985 35.6041V35.6011C56.1856 35.914 55.6782 35.914 55.3653 35.6011L55.341 35.5767C55.1921 35.4279 55.107 35.2243 55.107 35.0117V34.9873C55.107 34.5438 55.4655 34.1853 55.9091 34.1853H55.9061ZM53.1171 34.1853H53.1626C53.6062 34.1853 53.9647 34.5438 53.9647 34.9873V35.0117C53.9647 35.2243 53.8796 35.4279 53.7307 35.5767L53.7095 35.6011C53.4694 35.8259 53.1231 35.8897 52.8193 35.7621C52.5185 35.6345 52.321 35.3398 52.318 35.0117V34.9873V34.9904C52.318 34.5468 52.6765 34.1883 53.12 34.1883L53.1171 34.1853ZM50.328 34.1853H50.3736C50.5863 34.1853 50.7898 34.2704 50.9418 34.4192C51.0937 34.5711 51.1787 34.7747 51.1787 34.9874V35.0117C51.1787 35.2122 51.1028 35.4036 50.9691 35.5525L50.9235 35.6041V35.6011C50.6076 35.914 50.1002 35.914 49.7873 35.6011L49.766 35.5768C49.6171 35.4279 49.5321 35.2244 49.5321 35.0117V34.9874C49.5321 34.5438 49.8906 34.1853 50.3341 34.1853L50.328 34.1853ZM20.0921 19.2894H20.1377C20.5813 19.2894 20.9397 19.6479 20.9397 20.0884V20.1127C20.9397 20.3254 20.8577 20.5289 20.7058 20.6808L20.6815 20.7051L20.6845 20.7021C20.3716 21.015 19.8642 21.015 19.5513 20.7021L19.527 20.6778V20.6808C19.3751 20.5289 19.2931 20.3254 19.2931 20.1127V20.0884C19.2931 19.6479 19.6516 19.2894 20.0951 19.2894H20.0921ZM22.0912 21.2642H22.1368C22.5804 21.2642 22.9388 21.6227 22.9388 22.0663V22.0906V22.0875C22.9388 22.2881 22.8629 22.4825 22.7292 22.6283L22.6836 22.68C22.3707 22.9929 21.8633 22.9929 21.5474 22.68L21.5261 22.6557C21.3772 22.5068 21.2922 22.3002 21.2922 22.0875V22.0632V22.0663C21.2922 21.6227 21.6507 21.2642 22.0942 21.2642L22.0912 21.2642ZM24.0661 23.2391C23.6225 23.2391 23.264 23.5976 23.264 24.0411V24.0654C23.2671 24.3935 23.4645 24.6882 23.7653 24.8158C24.0691 24.9435 24.4185 24.8827 24.6555 24.6548L24.6798 24.6305V24.6336C24.8287 24.4817 24.9137 24.2781 24.9137 24.0654V24.0411C24.9137 23.8284 24.8287 23.6249 24.6768 23.476C24.5279 23.3241 24.3243 23.2421 24.1117 23.2421L24.0661 23.2391ZM7.3805 31.9431C8.83882 33.4015 9.06368 35.6862 7.91826 37.4027C6.77283 39.1162 4.57625 39.7846 2.66829 38.9947C0.763369 38.2079 -0.318202 36.1814 0.0828175 34.1579C0.483853 32.1345 2.2612 30.6761 4.32409 30.6761C5.46952 30.6761 6.56928 31.132 7.3805 31.9431ZM11.2845 34.1853H11.3301C11.5428 34.1853 11.7463 34.2704 11.8982 34.4192C12.0502 34.5711 12.1352 34.7747 12.1352 34.9874V35.0117C12.1352 35.2244 12.0502 35.4279 11.9013 35.5768L11.877 35.6011C11.64 35.8259 11.2906 35.8897 10.9899 35.7621C10.6891 35.6345 10.4916 35.3398 10.4886 35.0117V34.9874V34.9904C10.4886 34.5468 10.8471 34.1884 11.2906 34.1884L11.2845 34.1853ZM14.0735 34.1853H14.1191C14.5627 34.1853 14.9212 34.5438 14.9212 34.9873V35.0117C14.9212 35.2243 14.8361 35.4279 14.6872 35.5767L14.6629 35.6011C14.35 35.914 13.8426 35.914 13.5297 35.6011L13.5054 35.5767H13.5084C13.3565 35.4279 13.2745 35.2243 13.2745 35.0117V34.9873C13.2745 34.5438 13.633 34.1853 14.0765 34.1853H14.0735ZM16.8869 34.1853H16.9325C17.373 34.1853 17.7315 34.5438 17.7315 34.9873V35.0117C17.7345 35.2243 17.6495 35.4279 17.4975 35.5767L17.4763 35.6011C17.1634 35.914 16.656 35.914 16.3431 35.6011L16.3188 35.5767C16.1699 35.4279 16.0848 35.2243 16.0848 35.0117V34.9873C16.0848 34.5468 16.4433 34.1883 16.8838 34.1853H16.8869Z" fill="white"/>
</svg>
