<svg width="70" height="70" viewBox="0 0 70 70" fill="none" xmlns="http://www.w3.org/2000/svg">
<path fill-rule="evenodd" clip-rule="evenodd" d="M45.555 37.2347C47.6476 37.0063 49.5089 36.1452 50.867 34.8827V62.9151C50.867 66.4554 47.9718 69.3506 44.4315 69.3506C40.8913 69.3506 37.9961 66.4554 37.9961 62.9151V34.8827C39.3573 36.1452 41.2184 37.0063 43.3081 37.2347V57.5994C43.3081 58.2198 43.8112 58.723 44.4316 58.723C45.052 58.723 45.5551 58.2199 45.5551 57.5994L45.555 37.2347ZM60.5277 57.2138C60.5277 57.8342 60.0246 58.3374 59.4041 58.3374C58.7837 58.3374 58.2806 57.8343 58.2806 57.2138V28.5738C56.188 28.3454 54.3268 27.4843 52.9686 26.2218V62.9151C52.9686 66.4554 55.8638 69.3506 59.4041 69.3506C62.9443 69.3506 65.8395 66.4554 65.8395 62.9151V26.2218C64.4783 27.4843 62.6172 28.3454 60.5275 28.5738L60.5277 57.2138ZM69.9511 8.31025C69.8492 7.99542 69.59 7.77936 69.2597 7.73924L62.8921 6.93984L60.1636 1.13092C60.0217 0.831522 59.7377 0.649414 59.4074 0.649414C59.0741 0.649414 58.7901 0.828432 58.6512 1.13092L55.9227 6.93984L49.5552 7.73924C49.2249 7.77936 48.9657 7.99542 48.8638 8.31025C48.7619 8.62508 48.8453 8.95226 49.086 9.17761L53.7683 13.5698L52.5615 19.8725C52.4998 20.1997 52.6233 20.5114 52.8918 20.7059C53.1603 20.9004 53.4968 20.922 53.7869 20.7615L59.4106 17.6656L65.0343 20.7615C65.3244 20.922 65.6609 20.9004 65.9294 20.7059C66.1979 20.5115 66.3214 20.1966 66.2597 19.8725L65.0528 13.5698L69.7352 9.17761C69.9759 8.95229 70.0592 8.62511 69.9574 8.31025H69.9511ZM30.5823 57.5655C30.5823 58.1859 30.0792 58.689 29.4588 58.689C28.8384 58.689 28.3353 58.1859 28.3353 57.5655V47.34C26.2426 47.1116 24.3814 46.2505 23.0233 44.9881V62.9151C23.0233 66.4554 25.9185 69.3506 29.4587 69.3506C32.9989 69.3506 35.8941 66.4554 35.8941 62.9151V44.9881C34.5329 46.2505 32.6718 47.1116 30.5821 47.34L30.5823 57.5655ZM10.1062 7.06971L15.6774 2.39048L17.9707 7.3043C18.233 7.86297 18.8967 8.10371 19.4553 7.84445C20.014 7.58209 20.2547 6.91846 19.9955 6.35982L17.6496 1.3349C17.5015 1.01699 17.2237 0.804008 16.9058 0.72376C16.8224 0.665115 16.7206 0.640422 16.6126 0.658942L7.83471 2.21144C7.50136 2.27009 7.22666 2.39664 6.96735 2.61578L0.139923 8.35058C0.00411852 8.46478 -0.0390952 8.65306 0.0380636 8.81357C0.115222 8.97407 0.281898 9.06358 0.457834 9.03271L9.23569 7.48021C9.56904 7.42156 9.84374 7.29501 10.103 7.07587L10.1062 7.06971ZM12.4057 14.7583C15.1034 13.499 16.27 10.289 15.0108 7.59137C14.6311 6.77656 14.0694 6.0975 13.3996 5.58816L10.5908 7.94631C10.3315 8.16545 10.0568 8.292 9.72343 8.35065L4.77262 9.22725C4.65533 10.1934 4.79731 11.2057 5.24178 12.1533C6.50113 14.851 9.71106 16.0176 12.4087 14.7583L12.4057 14.7583ZM25.2426 34.0026C25.6161 34.2372 25.8352 34.5952 25.8784 35.0335L26.3599 40.1294C26.4433 40.9967 26.8754 41.7097 27.6099 42.1789C28.3445 42.6481 29.1718 42.7437 29.9958 42.4567L30.3477 42.3332C31.462 41.9412 32.1749 40.9381 32.178 39.756L32.212 28.5642C32.215 27.4191 31.7397 26.4283 30.8323 25.7339C29.9249 25.0363 28.8415 24.8295 27.7395 25.1381L19.7423 27.382C15.6311 28.5364 15.5662 22.1812 19.3503 19.9218L30.7736 13.1006C31.4156 12.7178 31.8231 12.1407 31.965 11.4061C32.1101 10.6715 31.9496 9.98317 31.499 9.38747L31.3169 9.14672C30.5298 8.10039 29.0946 7.82258 27.9741 8.49855C22.2239 11.9616 17.5448 14.8908 11.4211 16.2581C4.61526 17.7767 4.6245 26.4835 7.25739 33.271C9.64635 39.4318 10.9273 41.2682 10.4828 55.8339C10.4489 56.9636 10.9304 57.9513 11.844 58.621C12.7576 59.2877 13.8441 59.4513 14.912 59.0748L15.0201 59.0377C16.3102 58.584 17.1559 57.4667 17.2393 56.0993L18.403 36.8266C18.4369 36.271 18.7764 35.8173 19.298 35.6228L24.0421 33.8759C24.4557 33.7246 24.8724 33.7679 25.2458 34.0024L25.2426 34.0026Z" fill="white"/>
</svg>
