<svg width="52" height="70" viewBox="0 0 52 70" fill="none" xmlns="http://www.w3.org/2000/svg">
<path d="M51.6667 67.6667C51.6669 67.9731 51.6066 68.2766 51.4894 68.5598C51.3722 68.843 51.2004 69.1003 50.9837 69.317C50.767 69.5337 50.5097 69.7055 50.2265 69.8227C49.9433 69.9399 49.6398 70.0002 49.3334 70H2.66671C2.36024 70.0002 2.05674 69.9399 1.77357 69.8227C1.4904 69.7055 1.23311 69.5337 1.0164 69.317C0.799697 69.1003 0.627832 68.843 0.510633 68.5598C0.393434 68.2766 0.3332 67.9731 0.333374 67.6667C0.333374 60.8594 3.03753 54.331 7.85097 49.5176C12.6644 44.7042 19.1928 42 26 42C32.8073 42 39.3357 44.7042 44.1491 49.5176C48.9625 54.331 51.6667 60.8594 51.6667 67.6667ZM26 9.33333C23.2311 9.33333 20.5243 10.1544 18.2221 11.6928C15.9198 13.2311 14.1254 15.4176 13.0657 17.9758C12.0061 20.5339 11.7289 23.3489 12.269 26.0646C12.8092 28.7803 14.1426 31.2749 16.1005 33.2328C18.0585 35.1908 20.553 36.5241 23.2688 37.0643C25.9845 37.6045 28.7994 37.3273 31.3576 36.2677C33.9158 35.208 36.1023 33.4136 37.6406 31.1113C39.1789 28.809 40 26.1023 40 23.3333C39.996 19.6215 38.5197 16.063 35.8951 13.4383C33.2704 10.8137 29.7118 9.33739 26 9.33333ZM5.00004 30.3333C6.23722 30.3317 7.42328 29.8396 8.2981 28.9647C9.17292 28.0899 9.6651 26.9039 9.66671 25.6667V21C9.66671 19.7623 9.17504 18.5753 8.29987 17.7002C7.4247 16.825 6.23772 16.3333 5.00004 16.3333C3.76236 16.3333 2.57538 16.825 1.70021 17.7002C0.825039 18.5753 0.333374 19.7623 0.333374 21V25.6667C0.33498 26.9039 0.827161 28.0899 1.70198 28.9647C2.5768 29.8396 3.76286 30.3317 5.00004 30.3333ZM26 4.66667C29.1364 4.66986 32.2214 5.46384 34.9696 6.97517C37.7179 8.4865 40.0407 10.6664 41.7233 13.3133C43.061 12.4071 44.6124 11.8665 46.2236 11.7451C44.1881 8.17762 41.2452 5.21202 37.6934 3.14926C34.1416 1.0865 30.1074 0 26 0C21.8927 0 17.8585 1.0865 14.3067 3.14926C10.7549 5.21202 7.81193 8.17762 5.77648 11.7451C7.38766 11.8665 8.9391 12.4071 10.2768 13.3133C11.9594 10.6664 14.2822 8.4865 17.0304 6.97517C19.7787 5.46384 22.8636 4.66986 26 4.66667ZM47 16.3333C45.7629 16.3349 44.5768 16.8271 43.702 17.7019C42.8272 18.5768 42.335 19.7628 42.3334 21V25.6667C42.3346 26.4454 42.531 27.2113 42.9046 27.8946C43.2781 28.5778 43.8169 29.1566 44.4717 29.578C44.1154 31.1169 43.2492 32.4901 42.0138 33.4745C40.7783 34.4588 39.2463 34.9965 37.6667 35C37.0479 35 36.4544 35.2458 36.0168 35.6834C35.5792 36.121 35.3334 36.7145 35.3334 37.3333C35.3334 37.9522 35.5792 38.5457 36.0168 38.9833C36.4544 39.4208 37.0479 39.6667 37.6667 39.6667C40.4454 39.659 43.1299 38.6588 45.2361 36.8462C47.3423 35.0337 48.7315 32.5283 49.1532 29.7818C49.9081 29.3908 50.5414 28.8006 50.9845 28.0752C51.4276 27.3497 51.6636 26.5167 51.6667 25.6667V21C51.6651 19.7628 51.1729 18.5768 50.2981 17.7019C49.4233 16.8271 48.2372 16.3349 47 16.3333Z" fill="white"/>
</svg>
