<svg width="50" height="70" viewBox="0 0 50 70" fill="none" xmlns="http://www.w3.org/2000/svg">
<path d="M33.8042 38.9852H26.6212C26.0716 38.9836 25.5306 38.8477 25.0455 38.5891C24.5605 38.3306 24.146 37.9574 23.8382 37.502L22.0215 34.7688L20.2052 37.502C19.8973 37.9574 19.4828 38.3306 18.9976 38.5891C18.5125 38.8477 17.9715 38.9836 17.4218 38.9852H10.2388C11.4504 41.0416 13.1707 42.7517 15.2342 43.9513C17.2976 45.1508 19.635 45.7994 22.0215 45.8348C24.408 45.7994 26.7454 45.1508 28.8089 43.9513C30.8723 42.7517 32.5926 41.0416 33.8042 38.9852Z" fill="white"/>
<path d="M22.0215 15.0034C19.4737 15.0473 16.9862 15.786 14.8275 17.14C12.6688 18.494 10.9208 20.4117 9.77209 22.6863H34.2709C33.1222 20.4117 31.3742 18.494 29.2155 17.14C27.0568 15.786 24.5693 15.0473 22.0215 15.0034Z" fill="white"/>
<path d="M5.3559 26.0212V35.6503C5.35592 36.0923 5.53151 36.5162 5.84405 36.8287C6.15658 37.1413 6.58047 37.3169 7.02246 37.3169H17.4263C17.7006 37.3168 17.9707 37.2491 18.2126 37.1196C18.4545 36.9901 18.6607 36.803 18.8129 36.5747L21.3282 32.8016C21.4043 32.6875 21.5074 32.594 21.6283 32.5293C21.7493 32.4646 21.8843 32.4308 22.0215 32.4308C22.1586 32.4308 22.2937 32.4646 22.4146 32.5293C22.5355 32.594 22.6386 32.6875 22.7148 32.8016L25.2301 36.5747C25.3823 36.803 25.5884 36.9901 25.8303 37.1196C26.0722 37.2491 26.3423 37.3168 26.6166 37.3169H37.0206C37.4626 37.3169 37.8865 37.1413 38.199 36.8287C38.5116 36.5162 38.6872 36.0923 38.6872 35.6503V26.0212C38.6872 25.5792 38.5116 25.1553 38.199 24.8428C37.8865 24.5302 37.4626 24.3546 37.0206 24.3546H7.02246C6.58047 24.3546 6.15658 24.5302 5.84405 24.8428C5.53151 25.1553 5.35592 25.5792 5.3559 26.0212Z" fill="white"/>
<path d="M46.0988 10.1793L42.7657 8.51277C42.7421 8.50097 42.7164 8.50362 42.6928 8.49324C42.6786 8.48672 42.6676 8.47616 42.6534 8.47046L22.6546 0.137632C22.4558 0.0469365 22.2399 0 22.0215 0C21.803 0 21.5871 0.0469365 21.3884 0.137632L1.38961 8.47046C1.11427 8.58301 0.874443 8.76784 0.695467 9.00543C0.516491 9.24302 0.405011 9.52454 0.372803 9.82024C0.337275 10.1137 0.382051 10.4113 0.502358 10.6813C0.622665 10.9513 0.813994 11.1837 1.05594 11.3535L10.8388 18.3364C12.2463 16.7634 13.9698 15.505 15.8967 14.6435C17.8237 13.7819 19.9107 13.3366 22.0215 13.3366C24.1322 13.3366 26.2193 13.7819 28.1462 14.6435C30.0732 15.505 31.7967 16.7634 33.2041 18.3364L42.1656 11.9399L43.6868 12.7003V20.3402C42.911 20.6687 42.249 21.2181 41.7833 21.9202C41.3177 22.6223 41.069 23.4459 41.0682 24.2883C41.0682 26.3223 43.5957 28.8764 44.3712 29.6103C44.6363 29.862 44.9879 30.0023 45.3534 30.0023C45.7189 30.0023 46.0705 29.862 46.3356 29.6103C47.1111 28.8765 49.639 26.3223 49.639 24.2883C49.6381 23.4458 49.3893 22.6222 48.9236 21.9202C48.4579 21.2181 47.7958 20.6686 47.02 20.3402V11.6701C47.0199 11.3606 46.9337 11.0572 46.771 10.7939C46.6084 10.5306 46.3756 10.3178 46.0988 10.1793Z" fill="white"/>
<path d="M5.3559 70H10.3556V65.0003C10.3556 64.5583 10.5312 64.1344 10.8437 63.8218C11.1563 63.5093 11.5802 63.3337 12.0222 63.3337C12.4642 63.3337 12.8881 63.5093 13.2006 63.8218C13.5131 64.1344 13.6887 64.5583 13.6887 65.0003V70H30.3544V65.0003C30.3544 64.5583 30.53 64.1344 30.8425 63.8218C31.155 63.5093 31.5789 63.3337 32.0209 63.3337C32.4629 63.3337 32.8868 63.5093 33.1994 63.8218C33.5119 64.1344 33.6875 64.5583 33.6875 65.0003V70H38.6872C39.5708 69.9988 40.418 69.6473 41.0428 69.0225C41.6676 68.3976 42.0192 67.5505 42.0203 66.6668C42.0161 63.0041 41.0064 59.4128 39.1013 56.2844C37.1962 53.1561 34.4688 50.6108 31.2165 48.926C30.4479 50.7283 29.1666 52.265 27.5318 53.345C25.897 54.4251 23.9809 55.0009 22.0215 55.0009C20.0622 55.0009 18.1461 54.4251 16.5113 53.345C14.8765 52.265 13.5952 50.7283 12.8266 48.926C9.57425 50.6108 6.84688 53.1561 4.94179 56.2844C3.03669 59.4128 2.02699 63.0041 2.02277 66.6668C2.02391 67.5505 2.37545 68.3976 3.00028 69.0225C3.62512 69.6473 4.47225 69.9988 5.3559 70Z" fill="white"/>
</svg>
