<svg width="1440" height="1511" viewBox="0 0 1440 1511" fill="none" xmlns="http://www.w3.org/2000/svg">
<g opacity="0.2">
<mask id="mask0_81_472" style="mask-type:luminance" maskUnits="userSpaceOnUse" x="-313" y="0" width="2066" height="1511">
<path d="M-86.8347 0.522687L1752.42 1150.06L1526.83 1511L-312.423 361.464L-86.8347 0.522687Z" fill="white"/>
</mask>
<g mask="url(#mask0_81_472)">
<path d="M486.765 769.748C509.391 783.889 536.427 794.35 568.867 801.559C603.495 809.255 640.125 812.314 674.676 814.788C694.666 816.22 715.098 817.263 734.858 818.272C794.353 821.31 855.874 824.452 914.74 838.587C984.179 855.26 1042.89 889.9 1089.27 941.543C1117.16 972.612 1140.69 1007.86 1163.44 1041.95C1179.28 1065.68 1195.65 1090.21 1213.37 1113.15C1239.16 1146.51 1267.59 1174.19 1297.87 1195.4C1313.8 1206.59 1330.74 1216.27 1348.47 1224.3C1366.7 1232.53 1385.71 1238.92 1405.2 1243.4C1494.11 1263.83 1587.3 1253.09 1677.42 1242.71C1683.57 1242 1689.71 1241.3 1695.83 1240.6L1695.8 1240.33C1689.68 1241.03 1683.54 1241.73 1677.39 1242.45C1587.29 1252.83 1494.12 1263.56 1405.27 1243.14C1331.76 1226.25 1267.27 1182.46 1213.58 1112.98C1195.87 1090.06 1179.5 1065.53 1163.66 1041.8C1140.9 1007.7 1117.38 972.448 1089.46 941.366C1043.05 889.681 984.297 855.018 914.806 838.329C855.915 824.188 794.382 821.046 734.875 818.008C715.117 816.998 694.687 815.955 674.697 814.525C613.963 810.176 530.788 804.222 472.184 759.33C387.435 694.406 398.045 580.379 407.407 479.775C410.432 447.27 413.288 416.568 413.081 388.354C412.872 360.851 409.295 339.35 402.14 322.634C398.095 312.82 392.064 303.949 384.426 296.578C375.967 288.743 365.742 283.066 354.619 280.028C307.378 266.491 252.237 279.552 203.587 291.076C194.8 293.158 186.5 295.124 178.324 296.921L178.382 297.18C186.56 295.38 194.855 293.41 203.646 291.337C252.264 279.82 307.369 266.768 354.545 280.286C406.153 295.073 412.513 349.049 412.808 388.362C413.019 416.558 410.162 447.253 407.14 479.751C402.35 531.23 397.396 584.462 404.191 633.519C407.87 660.079 414.592 682.72 424.734 702.732C430.186 713.522 436.803 723.682 444.465 733.032C452.607 742.888 461.849 751.781 472.012 759.537C476.705 763.133 481.62 766.537 486.757 769.749" fill="url(#paint0_linear_81_472)" fill-opacity="0.7"/>
<path d="M474.128 753.153C518.626 780.964 572.751 789.765 615.817 794.282C633.291 796.117 650.751 797.368 667.138 798.491C684.108 799.655 701.438 800.586 718.198 801.485C767.928 804.15 819.347 806.916 868.817 816.163C881.657 818.565 894.134 821.352 905.903 824.446C973.921 842.355 1031.36 878.064 1076.62 930.581C1103.85 962.158 1126.7 997.861 1148.8 1032.39C1163.96 1056.07 1179.64 1080.56 1196.57 1103.48C1211.52 1123.91 1228.25 1142.98 1246.55 1160.47C1265.48 1178.63 1286.54 1194.44 1309.27 1207.53C1332.65 1220.85 1357.97 1230.42 1384.32 1235.89C1414.6 1242.12 1444.73 1243.13 1480.66 1242.72C1500.86 1242.45 1521.65 1241.41 1541.75 1240.41C1555.17 1239.75 1569.04 1239.05 1582.64 1238.59C1614.51 1237.47 1645.54 1236.94 1675.54 1236.42L1688.33 1236.21L1688.33 1235.89L1675.54 1236.1C1645.53 1236.62 1614.5 1237.15 1582.63 1238.27C1569.03 1238.73 1555.15 1239.42 1541.73 1240.09C1521.63 1241.1 1500.86 1242.13 1480.66 1242.4C1444.75 1242.81 1414.64 1241.8 1384.38 1235.58C1334.49 1225.31 1289.48 1200.67 1246.78 1160.24C1228.48 1142.76 1211.77 1123.7 1196.83 1103.29C1179.9 1080.38 1164.22 1055.89 1149.07 1032.22C1126.96 997.682 1104.1 961.968 1076.86 930.374C1031.56 877.809 974.067 842.067 905.984 824.14C894.207 821.044 881.721 818.257 868.874 815.852C819.381 806.602 767.949 803.84 718.212 801.169C701.453 800.269 684.124 799.339 667.157 798.174C650.772 797.051 633.315 795.8 615.843 793.97C569.66 789.123 510.735 779.351 464.672 746.462C433.184 723.849 411.97 693.723 399.814 654.379C383.225 601.215 385.818 540.104 388.325 481.005C389.65 449.774 390.896 420.278 389.292 393.031C387.69 365.968 383.39 345.837 375.743 329.665C371.361 320.111 365.137 311.516 357.429 304.369C348.881 296.731 338.698 291.149 327.66 288.052C281.068 274.387 226.927 285.356 179.158 295.031C169.891 296.908 161.138 298.681 152.515 300.272L152.573 300.586C161.199 298.996 169.953 297.222 179.223 295.345C226.954 285.676 281.055 274.716 327.571 288.359C377.38 302.92 386.55 351.957 388.977 393.052C390.586 420.275 389.334 449.77 388.006 480.996C385.499 540.123 382.905 601.262 399.513 654.474C411.688 693.893 432.942 724.068 464.49 746.723C467.644 748.973 470.856 751.12 474.127 753.161" fill="url(#paint1_linear_81_472)" fill-opacity="0.7"/>
<path d="M461.75 736.983C480.839 748.913 502.88 758.106 528.941 765C551.436 770.954 576.689 775.169 608.397 778.255C625.139 779.889 641.488 781.005 659.595 782.192C673.577 783.11 687.847 783.899 701.645 784.665C754.16 787.576 808.466 790.587 860.387 801.318C873.064 803.945 885.404 806.967 897.06 810.305C962.602 828.73 1020.88 866.897 1063.96 919.613C1090.52 951.719 1112.71 987.899 1134.17 1022.89C1148.64 1046.5 1163.61 1070.92 1179.76 1093.8C1194.12 1114.39 1210.23 1133.72 1227.91 1151.55C1248.12 1171.76 1268.06 1187.61 1288.87 1200C1311.82 1213.83 1337.07 1223.43 1363.4 1228.37C1395.87 1234.33 1429.07 1232.61 1461.17 1230.96L1464.62 1230.78C1474.67 1230.23 1485 1229.53 1494.99 1228.86C1520.32 1227.15 1546.5 1225.39 1572.12 1225.66C1605.12 1225.94 1636.31 1228.35 1666.48 1230.69C1671.27 1231.06 1676.04 1231.43 1680.79 1231.79L1680.82 1231.41C1676.07 1231.05 1671.3 1230.69 1666.51 1230.31C1636.34 1227.97 1605.13 1225.55 1572.12 1225.28C1546.49 1225.01 1520.29 1226.77 1494.95 1228.47C1484.97 1229.15 1474.64 1229.84 1464.6 1230.39L1461.15 1230.57C1429.06 1232.22 1395.89 1233.94 1363.46 1227.99C1315.19 1219.13 1270.94 1194.04 1228.17 1151.28C1210.52 1133.46 1194.42 1114.16 1180.07 1093.58C1163.94 1070.71 1148.96 1046.3 1134.49 1022.69C1113.02 987.693 1090.83 951.501 1064.26 919.376C1021.13 866.6 962.784 828.391 897.168 809.945C885.504 806.608 873.154 803.581 860.468 800.952C808.513 790.211 754.201 787.204 701.664 784.289C687.865 783.524 673.598 782.732 659.618 781.814C641.515 780.627 625.169 779.513 608.435 777.875C562.193 773.374 503.199 764.267 457.171 733.569C425.752 712.619 403.684 684.257 389.703 646.864C370.903 596.571 370.098 538.312 369.324 481.971C368.912 452.102 368.524 423.891 365.518 397.671C363.626 381.171 359.893 356.896 349.359 336.672C344.639 327.385 338.224 319.062 330.445 312.133C321.808 304.687 311.662 299.197 300.703 296.04C280.17 289.878 256.482 287.703 228.278 289.388C203.465 290.869 178.682 295.032 154.714 299.057C144.976 300.692 135.777 302.238 126.711 303.584L126.766 303.956C135.835 302.608 145.036 301.063 154.776 299.427C201.629 291.557 254.735 282.64 300.589 296.395C349.164 310.883 360.6 358.148 365.136 397.707C368.141 423.908 368.533 452.114 368.94 481.97C369.715 538.342 370.518 596.635 389.343 646.989C403.351 684.46 425.467 712.881 456.956 733.877C458.531 734.927 460.128 735.958 461.746 736.969" fill="url(#paint2_linear_81_472)" fill-opacity="0.7"/>
<path d="M448.632 720.569L449.43 721.067C469.764 733.639 493.399 743.118 521.677 750.037C544.013 755.503 569.211 759.378 600.98 762.231C617.999 763.766 635.027 764.83 651.497 765.859L652.054 765.894C663.084 766.586 674.328 767.217 685.212 767.831C740.496 770.942 797.662 774.158 851.958 786.476C864.478 789.325 876.682 792.579 888.218 796.166C953.416 816.476 1008.29 854.321 1051.31 908.651C1077.2 941.309 1098.72 977.992 1119.53 1013.47C1133.33 1036.98 1147.6 1061.3 1162.96 1084.13C1176.75 1104.89 1192.24 1124.47 1209.29 1142.65C1229.2 1163.72 1248.57 1180.01 1268.49 1192.47L1268.58 1192.52C1291.05 1206.88 1316.2 1216.52 1342.51 1220.87C1373.74 1225.95 1405.47 1222.93 1436.15 1220.02C1440.24 1219.64 1444.46 1219.23 1448.61 1218.86C1454.31 1218.34 1460.15 1217.79 1465.8 1217.25C1497.26 1214.25 1529.79 1211.15 1561.62 1212.76C1596.46 1214.41 1628.45 1219.83 1659.39 1225.07C1663.95 1225.84 1668.66 1226.64 1673.27 1227.4L1673.34 1226.97C1668.74 1226.21 1664.02 1225.41 1659.46 1224.64C1628.51 1219.4 1596.5 1213.98 1561.64 1212.33C1529.78 1210.72 1497.23 1213.82 1465.76 1216.82C1460.1 1217.36 1454.27 1217.91 1448.57 1218.43C1444.43 1218.8 1440.2 1219.2 1436.11 1219.59C1405.45 1222.5 1373.75 1225.51 1342.58 1220.44C1294.91 1212.69 1252.66 1187.88 1209.6 1142.36C1192.57 1124.19 1177.09 1104.63 1163.32 1083.88C1147.96 1061.07 1133.7 1036.75 1119.9 1013.24C1099.09 977.755 1077.56 941.059 1051.65 908.378C1008.57 853.98 953.627 816.086 888.343 795.749C876.791 792.164 864.575 788.898 852.052 786.053C797.719 773.728 740.535 770.51 685.233 767.398C674.356 766.785 663.109 766.152 652.079 765.461L651.522 765.426C635.056 764.397 618.032 763.332 601.018 761.798C551.913 757.39 495.529 749.06 449.658 720.699C418.214 701.263 395.289 674.653 379.583 639.369C358.43 591.865 354.277 536.329 350.259 482.624C348.135 454.239 346.129 427.425 341.738 402.328C334.651 361.806 321.036 318.439 273.746 304.052C253.496 297.838 230.209 295.232 202.556 296.084C178.204 296.834 153.828 300.078 130.256 303.215C120.056 304.575 110.413 305.856 100.908 306.924L100.957 307.354C110.466 306.285 120.106 305.002 130.313 303.643C176.292 297.524 228.405 290.589 273.622 304.466C320.682 318.786 334.248 362.01 341.313 402.402C345.699 427.483 347.705 454.282 349.823 482.652C353.846 536.392 358.006 591.961 379.187 639.54C394.796 674.605 417.517 701.119 448.631 720.565" fill="url(#paint3_linear_81_472)" fill-opacity="0.7"/>
<path d="M435.096 704.178C437.325 705.572 439.593 706.928 441.902 708.249C487.914 734.499 544.388 742.168 593.564 746.204C609.351 747.509 625.203 748.45 640.541 749.362L644.518 749.598C652.628 750.084 660.893 750.547 668.886 750.996C726.916 754.264 786.929 757.631 843.538 771.637C855.902 774.706 867.962 778.201 879.391 782.033C943.185 803.507 996.776 842.42 1038.68 897.692C1063.91 930.927 1084.76 968.138 1104.93 1004.12C1118.04 1027.52 1131.6 1051.72 1146.17 1074.45C1159.38 1095.39 1174.26 1115.22 1190.68 1133.74C1210.23 1155.62 1229.02 1172.36 1248.13 1184.9C1271.65 1200.33 1295.68 1209.64 1321.63 1213.36C1352.52 1217.78 1383.75 1213.52 1413.94 1209.4C1420.07 1208.56 1426.41 1207.7 1432.6 1206.92C1435.22 1206.6 1437.85 1206.27 1440.49 1205.94C1476.8 1201.37 1514.34 1196.66 1551.12 1199.84C1587.86 1202.89 1620.69 1211.37 1652.44 1219.57C1656.82 1220.7 1661.34 1221.87 1665.76 1223L1665.87 1222.52C1661.45 1221.4 1656.93 1220.23 1652.56 1219.1C1620.79 1210.89 1587.94 1202.4 1551.15 1199.35C1514.33 1196.16 1476.75 1200.89 1440.42 1205.45C1437.79 1205.78 1435.16 1206.11 1432.53 1206.44C1426.33 1207.21 1420 1208.08 1413.87 1208.91C1383.71 1213.03 1352.52 1217.29 1321.69 1212.88C1260.38 1204.1 1217.76 1163.33 1191.04 1133.41C1174.64 1114.91 1159.77 1095.1 1146.58 1074.19C1132.01 1051.45 1118.46 1027.27 1105.35 1003.87C1085.18 967.87 1064.32 930.642 1039.07 897.38C1018.95 870.624 995.025 846.955 968.055 827.126C941.045 807.508 911.191 792.141 879.53 781.559C868.095 777.728 856.021 774.227 843.644 771.155C786.995 757.143 726.965 753.768 668.913 750.499C660.919 750.05 652.655 749.586 644.545 749.1L640.569 748.865C625.241 747.955 609.391 747.015 593.609 745.71C544.488 741.673 488.078 734.02 442.152 707.813C410.678 689.86 386.905 665.014 369.466 631.858C345.887 587.024 338.367 534.098 331.093 482.915C327.291 456.144 323.695 430.855 317.958 406.975C313.68 389.179 307.799 368.583 296.59 350.733C284.407 331.332 268.117 318.681 246.791 312.059C226.82 305.794 203.936 302.77 176.828 302.817C152.932 302.859 128.968 305.203 105.79 307.47C95.1246 308.513 85.0504 309.499 75.1074 310.257L75.1442 310.744C85.0886 309.992 95.1691 309 105.838 307.957C150.947 303.543 202.074 298.543 246.645 312.527C292.34 326.716 307.695 366.362 317.482 407.091C323.215 430.947 326.807 456.224 330.61 482.985C337.889 534.209 345.421 587.182 369.033 632.087C385.235 662.893 406.897 686.552 435.1 704.18" fill="url(#paint4_linear_81_472)" fill-opacity="0.7"/>
<path d="M420.943 687.723C425.279 690.433 429.758 692.997 434.38 695.415C455.035 706.227 478.842 714.301 507.159 720.099C529.383 724.65 553.74 727.762 586.146 730.17C600.633 731.259 615.229 732.074 629.343 732.861L636.97 733.289C642.192 733.585 647.42 733.876 652.655 734.163C713.419 737.522 776.252 740.994 835.093 756.778C847.304 760.065 859.227 763.795 870.526 767.872C932.921 790.484 985.225 830.462 1026 886.705C1050.58 920.545 1070.76 958.316 1090.28 994.843C1102.71 1018.09 1115.56 1042.13 1129.35 1064.77C1141.98 1085.87 1156.25 1105.95 1172.02 1124.82C1191.41 1147.8 1209.11 1164.48 1227.74 1177.3C1250.93 1193.27 1274.81 1202.61 1300.72 1205.83C1331.87 1209.72 1363.21 1204.21 1393.51 1198.88C1401.09 1197.55 1408.92 1196.17 1416.56 1194.98L1417.55 1194.83C1457.91 1188.53 1499.64 1182.01 1540.59 1186.91C1579.25 1191.39 1612.91 1202.99 1645.46 1214.21C1649.65 1215.65 1653.97 1217.14 1658.2 1218.58L1658.38 1218.06C1654.15 1216.62 1649.82 1215.13 1645.64 1213.69C1613.06 1202.46 1579.37 1190.85 1540.65 1186.37C1499.63 1181.46 1457.86 1187.98 1417.46 1194.29L1416.48 1194.44C1408.83 1195.63 1400.99 1197.01 1393.42 1198.34C1363.15 1203.67 1331.85 1209.17 1300.78 1205.29C1241.17 1197.86 1200.88 1158.19 1172.44 1124.47C1156.68 1105.62 1142.43 1085.56 1129.81 1064.48C1116.04 1041.86 1103.19 1017.83 1090.77 994.584C1071.24 958.042 1051.04 920.254 1026.45 886.384C1007.03 859.343 983.82 835.241 957.529 814.82C931.205 794.625 901.919 778.618 870.706 767.367C859.389 763.288 847.455 759.55 835.228 756.259C776.333 740.46 713.467 736.993 652.678 733.626C647.446 733.337 642.218 733.045 636.994 732.752L629.367 732.324C615.255 731.536 600.666 730.725 586.181 729.634C537.016 725.97 480.558 718.988 434.625 694.94C403.128 678.455 378.506 655.37 359.329 624.356C333.196 582.083 322.275 531.617 311.713 482.815C306.297 457.796 301.183 434.161 294.161 411.626C288.805 394.433 281.77 374.59 270.2 357.772C257.336 339.07 240.857 326.739 219.822 320.074C200.134 313.761 177.649 310.336 151.084 309.602C127.644 308.955 104.093 310.421 81.3211 311.834C70.192 312.527 59.6814 313.182 49.2974 313.592L49.3229 314.138C59.7134 313.726 70.2276 313.072 81.3587 312.379C127.758 309.491 175.738 306.505 219.662 320.591C264.098 334.67 281.484 372.743 293.648 411.788C300.662 434.299 305.776 457.921 311.187 482.929C321.759 531.777 332.689 582.287 358.872 624.64C374.34 650.236 395.601 671.844 420.943 687.723Z" fill="url(#paint5_linear_81_472)" fill-opacity="0.7"/>
<path d="M405.727 671.046C412.544 675.295 419.598 679.153 426.854 682.6C472.702 704.472 526.945 710.69 578.735 714.154C591.856 715.04 605.115 715.729 617.937 716.397C621.782 716.6 625.614 716.801 629.433 717L636.529 717.379C700.01 720.771 765.654 724.278 826.665 741.942C838.728 745.448 850.511 749.417 861.682 753.744C922.686 777.469 973.715 818.517 1013.35 875.75C1037.27 910.217 1056.79 948.572 1075.67 985.67C1087.4 1008.75 1099.54 1032.6 1112.53 1055.1C1124.58 1076.39 1138.23 1096.72 1153.39 1115.92C1172.27 1139.68 1189.42 1156.77 1207.36 1169.71C1230.21 1186.19 1253.91 1195.55 1279.82 1198.33C1311.55 1201.74 1343.33 1194.98 1374.06 1188.44C1382.77 1186.59 1391.77 1184.68 1400.53 1183.05C1438.38 1176.04 1485.48 1167.32 1530.07 1173.99C1570.65 1179.91 1605.13 1194.69 1638.47 1208.97C1642.47 1210.69 1646.61 1212.46 1650.66 1214.17L1650.89 1213.62C1646.85 1211.91 1642.71 1210.13 1638.7 1208.42C1605.33 1194.12 1570.82 1179.33 1530.16 1173.39C1485.47 1166.7 1438.31 1175.44 1400.42 1182.45C1391.65 1184.08 1382.64 1185.99 1373.93 1187.85C1343.25 1194.37 1311.51 1201.12 1279.88 1197.72C1221.05 1191.41 1181.62 1150.48 1153.85 1115.53C1138.72 1096.36 1125.08 1076.05 1113.05 1054.79C1100.06 1032.31 1087.92 1008.46 1076.19 985.396C1057.31 948.28 1037.78 909.901 1013.83 875.392C995.115 848.059 972.615 823.518 947.005 802.504C921.37 781.729 892.653 765.08 861.888 753.156C850.697 748.829 838.898 744.853 826.818 741.342C765.74 723.66 700.062 720.151 636.547 716.757L629.451 716.377C625.637 716.174 621.805 715.973 617.956 715.774C605.135 715.107 591.88 714.418 578.763 713.532C527.037 710.075 472.865 703.866 427.106 682.039C395.978 667.333 369.151 644.876 349.197 616.822C320.335 576.989 305.933 528.816 292.004 482.229C285.4 460.135 278.568 437.29 270.369 416.246C263.578 398.814 255.666 380.517 243.822 364.784C231.176 347.431 213.322 334.565 192.859 328.06C173.455 321.703 151.374 317.89 125.347 316.398C102.363 315.085 79.2318 315.692 56.864 316.28C45.2707 316.584 34.3189 316.873 23.4863 316.904L23.4885 317.505C34.3263 317.472 45.2785 317.191 56.8794 316.88C102.361 315.683 149.394 314.449 192.666 328.627C237.975 343.276 256.239 381.645 269.801 416.459C277.991 437.48 284.514 459.299 291.417 482.403C305.357 529.035 319.778 577.26 348.698 617.175C358.192 630.433 369.212 642.527 381.531 653.21C389.121 659.759 397.204 665.716 405.707 671.028" fill="url(#paint6_linear_81_472)" fill-opacity="0.7"/>
<path d="M1199.05 1170.39C1217.09 1181.89 1237.62 1188.89 1258.93 1190.81C1291.42 1193.76 1323.83 1185.76 1355.18 1178.02C1364.84 1175.64 1374.82 1173.17 1384.52 1171.11C1430.5 1161.35 1475.44 1153.24 1519.56 1161.07C1562.08 1168.45 1597.35 1186.43 1631.46 1203.83C1635.29 1205.78 1639.26 1207.8 1643.13 1209.76L1643.43 1209.17C1639.55 1207.22 1635.59 1205.19 1631.75 1203.24C1597.6 1185.83 1562.29 1167.82 1519.67 1160.42C1499.31 1156.81 1476.99 1156.34 1451.45 1158.99C1428.11 1161.41 1404.59 1166.19 1384.39 1170.48C1374.68 1172.54 1364.69 1175 1355.03 1177.39C1323.74 1185.11 1291.38 1193.1 1258.99 1190.16C1200.77 1184.87 1162.3 1142.73 1135.29 1106.6C1120.8 1087.09 1107.77 1066.53 1096.31 1045.1C1084.11 1022.79 1072.69 999.166 1061.64 976.321C1043.4 938.597 1024.54 899.589 1001.24 864.403C983.215 836.784 961.427 811.813 936.506 790.212C911.558 768.866 883.406 751.58 853.083 738.989C842.013 734.408 830.356 730.199 818.42 726.472C755.223 706.801 687.451 703.362 621.912 700.046C616.727 699.785 611.414 699.535 606.276 699.285C594.84 698.738 583.017 698.172 571.346 697.474C519.487 694.409 465.209 688.859 419.591 669.177C388.411 655.845 360.822 635.335 339.071 609.319C307.235 571.801 289.213 525.724 271.788 481.16C263.926 461.059 255.797 440.272 246.588 420.897C239.159 405.266 230.168 387.297 217.452 371.866C204.101 355.198 186.195 342.767 165.912 336.084C123.102 321.859 76.9033 321.363 32.2254 320.886C20.2414 320.759 8.91573 320.634 -2.29906 320.256L-2.32031 320.912C8.90679 321.294 20.23 321.414 32.2187 321.542C76.8397 322.016 122.987 322.509 165.702 336.704C209.691 351.322 229.487 386.45 245.995 421.171C255.193 440.525 263.319 461.301 271.175 481.391C288.622 526.004 306.662 572.138 338.571 609.736C348.884 622.011 360.498 633.132 373.208 642.904C387.408 653.74 402.904 662.764 419.336 669.766C440.299 678.807 464.281 685.476 492.656 690.153C520.39 694.725 549.262 696.807 571.316 698.111C582.991 698.808 594.817 699.376 606.253 699.923C611.39 700.169 616.704 700.423 621.887 700.684C687.385 704.005 755.113 707.44 818.225 727.078C830.142 730.8 841.785 735.004 852.83 739.576C912.451 764.389 962.201 806.506 1000.69 864.756C1023.97 899.903 1042.82 938.891 1061.05 976.595C1072.1 999.451 1083.52 1023.08 1095.73 1045.39C1107.21 1066.85 1120.25 1087.44 1134.76 1106.98C1153.08 1131.48 1169.68 1148.99 1187 1162.06C1190.98 1165.07 1195 1167.85 1199.06 1170.38" fill="url(#paint7_linear_81_472)" fill-opacity="0.7"/>
<path d="M1180.5 1164.26C1197.8 1175.26 1217.57 1181.81 1238.03 1183.3C1271.42 1185.81 1304.58 1176.57 1336.66 1167.62C1347.15 1164.7 1357.99 1161.68 1368.5 1159.18C1413.95 1148.39 1462.23 1138.65 1509.04 1148.15C1553.49 1157.01 1589.54 1178.24 1624.41 1198.78C1628.08 1200.95 1631.88 1203.18 1635.59 1205.35L1635.95 1204.73C1632.24 1202.57 1628.44 1200.33 1624.77 1198.17C1589.85 1177.6 1553.75 1156.33 1509.18 1147.45C1462.23 1137.93 1413.86 1147.68 1368.33 1158.49C1357.81 1160.99 1346.96 1164.01 1336.47 1166.94C1304.45 1175.86 1271.35 1185.08 1238.08 1182.59C1180.65 1178.27 1144.49 1137.24 1116.7 1097.67C1102.86 1077.82 1090.45 1057.01 1079.55 1035.4C1068.14 1013.31 1057.43 989.951 1047.07 967.357C1029.48 928.986 1011.29 889.308 988.633 853.412C971.299 825.497 950.219 800.092 925.982 777.905C901.728 755.984 874.147 738.055 844.268 724.788C833.333 719.959 821.805 715.515 810.013 711.564C781.924 702.203 750.418 695.489 713.697 691.035C680.849 687.051 647.973 685.282 614.379 683.683C607.717 683.37 600.888 683.072 594.279 682.786C584.338 682.356 574.059 681.91 563.936 681.383C515.442 678.892 459.719 674.697 412.073 656.292C380.778 644.291 352.426 625.709 328.933 601.804C293.781 566.474 271.922 522.252 250.784 479.485C241.924 461.562 232.763 443.028 222.792 425.532C213.436 409.115 203.973 393.198 191.09 378.9C177.067 362.927 159.087 350.925 138.958 344.097C96.8238 329.803 51.5981 327.657 7.86224 325.582C-4.60369 324.994 -16.3883 324.43 -28.0859 323.598L-28.1333 324.302C-16.4289 325.135 -4.64407 325.695 7.83066 326.286C51.5178 328.36 96.6922 330.504 138.733 344.765C184.869 360.415 206.437 398.255 222.179 425.886C232.14 443.363 241.295 461.887 250.15 479.802C271.313 522.619 293.197 566.894 328.433 602.307C339.554 613.576 351.758 623.722 364.87 632.597C379.547 642.468 395.299 650.638 411.822 656.949C459.566 675.392 515.358 679.595 563.904 682.088C574.026 682.613 584.311 683.061 594.254 683.491C600.863 683.772 607.692 684.074 614.351 684.388C685.779 687.793 749.787 692.238 809.798 712.236C821.572 716.176 833.075 720.615 843.99 725.435C902.242 751.31 950.71 794.496 988.046 853.788C1010.68 889.644 1028.85 929.297 1046.44 967.65C1056.8 990.257 1067.51 1013.62 1078.93 1035.72C1089.85 1057.36 1102.28 1078.19 1116.14 1098.07C1127.28 1113.94 1144.64 1137.05 1166.64 1154.44C1171.08 1157.96 1175.71 1161.24 1180.51 1164.25" fill="url(#paint8_linear_81_472)" fill-opacity="0.7"/>
<path d="M1161.65 1157.96C1178.32 1168.54 1197.42 1174.68 1217.13 1175.79C1251.49 1177.86 1285.5 1167.37 1318.39 1157.22C1329.62 1153.76 1341.24 1150.18 1352.47 1147.25C1397.24 1135.57 1449.14 1124.04 1498.53 1135.23C1544.91 1145.58 1581.72 1170.1 1617.33 1193.81C1620.85 1196.16 1624.5 1198.59 1628.05 1200.93L1628.47 1200.29C1624.92 1197.94 1621.28 1195.52 1617.76 1193.17C1582.09 1169.42 1545.21 1144.86 1498.69 1134.48C1449.15 1123.26 1397.13 1134.81 1352.28 1146.5C1341.03 1149.44 1329.4 1153.02 1318.17 1156.49C1285.34 1166.61 1251.4 1177.08 1217.18 1175.03C1160.07 1171.6 1124.95 1129.48 1098.13 1088.74C1084.94 1068.55 1073.14 1047.5 1062.8 1025.71C1052.17 1003.88 1042.17 980.828 1032.51 958.531C1015.57 919.47 998.05 879.078 976.034 842.427C959.388 814.217 939.016 788.378 915.469 765.608C891.908 743.112 864.892 724.539 835.45 710.598C824.644 705.516 813.256 700.83 801.602 696.668C773.613 686.712 742.301 679.589 705.878 674.883C671.627 670.46 636.796 668.665 606.832 667.327C598.596 666.962 590.144 666.64 581.974 666.327C573.628 666.008 565 665.677 556.514 665.3C505.527 663.08 451.793 659.562 404.545 643.41C373.03 632.78 343.897 616.091 318.785 594.283C279.849 561.02 253.82 518.371 228.653 477.132C219.17 461.595 209.363 445.529 198.996 430.167C189.487 416.079 178.711 400.113 164.738 385.931C150.061 370.666 131.991 359.077 111.995 352.105C70.5703 337.764 26.3483 334.018 -16.4203 330.395C-29.4095 329.295 -41.6782 328.256 -53.8841 326.933L-53.9663 327.695C-41.7509 329.021 -29.4787 330.06 -16.4852 331.159C26.2357 334.776 70.4119 338.516 111.743 352.829C156.277 368.251 179.609 402.817 198.356 430.592C208.714 445.94 218.513 461.995 227.991 477.531C240.594 498.179 253.625 519.531 268.111 539.442C284.362 561.778 300.773 579.909 318.285 594.869C330.194 605.12 342.986 614.297 356.513 622.292C371.651 631.187 387.66 638.507 404.291 644.136C451.635 660.321 505.431 663.845 556.475 666.067C564.961 666.443 573.593 666.774 581.938 667.095C590.109 667.408 598.56 667.732 606.795 668.096C674.395 671.112 740.141 675.626 801.338 697.392C812.97 701.546 824.335 706.223 835.116 711.293C892.81 738.587 938.687 781.609 975.364 842.819C997.354 879.426 1014.86 919.794 1031.79 958.831C1041.46 981.135 1051.47 1004.2 1062.1 1026.04C1072.45 1047.86 1084.27 1068.94 1097.47 1089.16C1109.12 1106.84 1125.19 1129.38 1146.24 1146.8C1151.12 1150.85 1156.26 1154.58 1161.64 1157.95" fill="url(#paint9_linear_81_472)" fill-opacity="0.7"/>
<path d="M1142.47 1151.46C1158.61 1161.68 1177.16 1167.48 1196.25 1168.28C1231.63 1169.9 1266.55 1158.17 1300.31 1146.83C1312.23 1142.83 1324.56 1138.69 1336.46 1135.33C1382.6 1122.28 1436.16 1109.44 1488.02 1122.32C1536.33 1134.17 1573.9 1162.01 1610.24 1188.93C1613.62 1191.44 1617.11 1194.02 1620.52 1196.53L1621.01 1195.86C1617.59 1193.36 1614.11 1190.77 1610.72 1188.27C1592.82 1175 1574.31 1161.29 1554.23 1149.41C1531.5 1135.96 1509.9 1126.84 1488.21 1121.52C1465.15 1115.79 1440.02 1114.7 1411.41 1118.17C1384.63 1121.43 1358.38 1128.27 1336.24 1134.53C1324.32 1137.9 1311.97 1142.05 1300.04 1146.06C1266.35 1157.37 1231.51 1169.07 1196.28 1167.46C1139.39 1164.87 1105.34 1121.7 1079.55 1079.82C1067.02 1059.3 1055.83 1037.99 1046.05 1016.03C1036.2 994.505 1026.92 971.805 1017.93 949.857C1001.65 910.057 984.809 868.902 963.424 831.443C947.464 802.934 927.801 776.663 904.948 753.313C882.084 730.248 855.638 711.034 826.636 696.417C815.968 691.084 804.716 686.16 793.195 681.781C765.324 671.227 734.211 663.693 698.063 658.739C664.418 654.129 630.706 652.285 599.287 650.978C589.342 650.569 579.137 650.234 569.271 649.91C562.654 649.694 555.811 649.469 549.089 649.222C495.584 647.315 443.694 644.447 397.012 630.531C365.243 621.16 335.339 606.353 308.629 586.765C265.274 555.452 235.941 515.885 204.889 473.989C195.318 461.075 185.42 447.722 175.18 434.796L174.037 433.348C152.507 406.157 128.103 375.339 85.0288 360.118C44.3659 345.746 1.18798 340.467 -40.5699 335.362C-54.1219 333.704 -66.9218 332.139 -79.685 330.273L-79.8038 331.088C-67.0354 332.952 -54.227 334.52 -40.67 336.179C1.04284 341.28 44.1765 346.553 84.7535 360.895C127.603 376.04 151.928 406.759 173.389 433.863L174.532 435.311C184.763 448.227 194.657 461.575 204.224 474.483C219.125 494.587 234.533 515.375 251.276 534.561C270.033 556.054 288.634 573.348 308.143 587.437C320.822 596.655 334.203 604.865 348.165 611.99C363.743 619.9 380.011 626.371 396.766 631.322C443.542 645.265 495.49 648.135 549.049 650.048C555.772 650.294 562.615 650.519 569.234 650.736C579.099 651.058 589.3 651.393 599.242 651.804C663.146 654.46 730.74 659.021 792.892 682.554C804.388 686.923 815.612 691.835 826.255 697.156C882.608 725.474 927.239 769.535 962.712 831.856C984.065 869.265 1000.89 910.394 1017.17 950.169C1026.15 972.127 1035.44 994.834 1045.3 1016.37C1055.09 1038.36 1066.3 1059.7 1078.84 1080.25C1095.39 1107.11 1115.31 1134.49 1142.46 1151.46" fill="url(#paint10_linear_81_472)" fill-opacity="0.7"/>
<path d="M1123.22 1144.93C1138.85 1154.81 1156.86 1160.28 1175.35 1160.77C1211.81 1161.92 1247.66 1148.96 1282.34 1136.42C1294.91 1131.88 1307.91 1127.18 1320.44 1123.38C1371.46 1107.91 1425.8 1095.5 1477.5 1109.4C1527.74 1122.75 1566.06 1153.93 1603.11 1184.09C1606.35 1186.73 1609.7 1189.46 1612.98 1192.1L1613.53 1191.42C1610.26 1188.78 1606.91 1186.05 1603.66 1183.41C1585.42 1168.56 1566.56 1153.21 1545.95 1139.89C1522.6 1124.79 1500.29 1114.54 1477.72 1108.54C1425.81 1094.59 1371.33 1107.02 1320.18 1122.54C1307.63 1126.35 1294.62 1131.05 1282.04 1135.6C1247.44 1148.11 1211.66 1161.04 1175.37 1159.89C1118.6 1158.09 1085.69 1113.89 1060.97 1070.88C1049.1 1050.04 1038.52 1028.48 1029.3 1006.33C1020.23 985.168 1011.65 962.884 1003.36 941.335C987.733 900.741 971.573 858.769 950.829 820.454C935.553 791.643 916.598 764.939 894.44 741.012C872.273 717.378 846.396 697.522 817.83 682.226C807.092 676.543 796.065 671.422 784.795 666.884C757.067 655.738 726.145 647.791 690.254 642.585C655.733 637.579 621.088 635.75 591.748 634.621C579.962 634.172 567.88 633.849 556.195 633.537C551.351 633.407 546.51 633.275 541.672 633.139C485.532 631.578 435.331 629.336 389.485 617.648C357.38 609.525 326.695 596.576 298.478 579.242C249.83 549.799 215.355 511.008 178.85 469.934C169.946 459.916 160.74 449.557 151.374 439.42C150.292 438.255 149.208 437.079 148.12 435.892C125.288 411.115 99.4194 383.038 58.0745 368.126C18.2457 353.76 -23.8147 347.012 -64.4959 340.496C-78.6855 338.227 -92.0813 336.074 -105.474 333.607L-105.633 334.472C-92.2328 336.938 -78.8279 339.086 -64.6391 341.361C-24.001 347.877 18.0153 354.61 57.7717 368.951C98.9139 383.791 124.711 411.787 147.47 436.487C148.562 437.672 149.647 438.848 150.724 440.015C160.083 450.145 169.287 460.501 178.187 470.517C195.754 490.283 213.924 510.726 233.286 529.338C254.944 550.165 276.12 566.731 298.019 579.987C326.31 597.369 357.077 610.355 389.266 618.5C435.201 630.21 485.452 632.456 541.647 634.018C546.482 634.157 551.323 634.289 556.17 634.416C567.853 634.729 579.931 635.051 591.713 635.501C651.984 637.819 721.553 642.413 784.465 667.7C795.706 672.226 806.704 677.334 817.415 683.003C872.404 712.331 915.79 757.431 950.053 820.873C970.772 859.135 986.919 901.084 1002.53 941.651C1010.83 963.209 1019.41 985.501 1028.49 1006.68C1037.72 1028.86 1048.32 1050.44 1060.21 1071.32C1076.3 1099.33 1095.88 1127.84 1123.22 1144.93Z" fill="url(#paint11_linear_81_472)" fill-opacity="0.7"/>
<path d="M1103.78 1138.32C1107.63 1140.74 1111.63 1142.88 1115.77 1144.75C1127.95 1150.18 1141.12 1153.08 1154.45 1153.25C1191.86 1153.94 1228.55 1139.81 1264.03 1126.14C1277.97 1120.77 1291.15 1115.7 1304.42 1111.44C1354.28 1095.25 1412.58 1080.82 1466.98 1096.47C1519.15 1111.34 1558.19 1145.89 1595.95 1179.31C1599.07 1182.06 1602.29 1184.92 1605.44 1187.68L1606.06 1186.98C1602.91 1184.21 1599.69 1181.36 1596.58 1178.61C1578 1162.17 1558.8 1145.18 1537.66 1130.39C1513.7 1113.64 1490.67 1102.25 1467.24 1095.57C1442.38 1088.41 1415.38 1086.89 1384.7 1090.91C1354.92 1094.81 1326 1103.46 1304.13 1110.56C1290.84 1114.82 1277.65 1119.9 1263.7 1125.27C1228.3 1138.9 1191.7 1153 1154.47 1152.32C1097.74 1151.28 1065.98 1106.06 1042.39 1061.96C1031.18 1040.79 1021.22 1018.98 1012.55 996.648C1004.25 975.899 996.381 954.094 988.768 933.004C973.809 891.559 958.34 848.702 938.227 809.472C905.111 744.713 862.846 698.45 809.024 668.036C798.445 662.103 787.553 656.745 776.396 651.987C715.784 626.181 648.208 620.527 584.211 618.263C570.431 617.779 556.33 617.496 542.693 617.224L534.258 617.054C483.048 616.031 430.089 614.985 381.96 604.762C349.451 597.837 317.976 586.731 288.32 571.722C233.189 544.096 192.587 505.589 149.6 464.821C142.427 458.017 135.009 450.983 127.566 444.047C125.624 442.237 123.669 440.407 121.702 438.558C97.7876 416.124 70.6821 390.696 31.1232 376.136C-7.76286 361.822 -48.6045 353.706 -88.1011 345.854C-102.372 343.018 -117.129 340.085 -131.254 336.948L-131.458 337.86C-117.321 340.999 -102.559 343.933 -88.2845 346.77C-48.8209 354.615 -8.0183 362.724 30.7976 377.012C70.1776 391.507 97.2083 416.869 121.061 439.238C123.033 441.082 124.988 442.915 126.923 444.736C134.364 451.669 141.779 458.701 148.951 465.505C183.886 498.636 217.253 530.28 258.129 555.828C267.611 561.754 277.493 567.351 287.897 572.564C317.622 587.611 349.171 598.746 381.756 605.689C429.973 615.93 482.974 616.982 534.23 618.001L542.667 618.172C556.302 618.444 570.397 618.728 584.17 619.211C648.078 621.472 715.552 627.114 776.022 652.861C787.147 657.605 798.007 662.947 808.555 668.863C862.21 699.176 904.358 745.314 937.388 809.905C957.473 849.082 972.933 891.911 987.881 933.329C995.496 954.427 1003.37 976.243 1011.67 997C1020.35 1019.36 1030.33 1041.2 1041.56 1062.41C1051.73 1081.41 1065.87 1105.58 1085.12 1123.8C1090.83 1129.25 1097.08 1134.12 1103.76 1138.33" fill="url(#paint12_linear_81_472)" fill-opacity="0.7"/>
<path d="M1084.18 1131.63C1098.97 1140.92 1116.1 1145.82 1133.57 1145.74C1172.12 1145.95 1209.84 1130.58 1246.31 1115.72C1260.85 1109.79 1274.59 1104.2 1288.41 1099.51C1339.76 1081.92 1399.89 1066.27 1456.47 1083.55C1510.57 1099.95 1550.33 1137.89 1588.79 1174.58C1591.78 1177.44 1594.87 1180.39 1597.9 1183.26L1598.59 1182.54C1595.56 1179.68 1592.47 1176.72 1589.47 1173.87C1570.57 1155.83 1551.02 1137.19 1529.36 1120.93C1504.81 1102.51 1481.06 1089.97 1456.76 1082.6C1431.02 1074.74 1403.08 1073.01 1371.35 1077.3C1340.33 1081.5 1310.56 1090.88 1288.09 1098.57C1274.24 1103.27 1260.49 1108.87 1245.94 1114.8C1209.55 1129.63 1171.93 1144.96 1133.57 1144.75C1076.81 1144.45 1046.24 1098.21 1023.82 1053.03C1013.28 1031.54 1003.92 1009.48 995.798 986.959C988.27 966.702 981.103 945.442 974.17 924.882C959.885 882.513 945.114 838.704 925.635 798.48C893.767 732.545 852.745 685.229 800.22 653.847C789.801 647.663 779.044 642.069 767.999 637.091C740.587 624.755 710.054 615.988 674.64 610.276C646.685 605.769 616.471 603.188 576.673 601.904C560.724 601.394 544.439 601.191 528.694 600.99L519.885 600.886C471.053 600.321 420.555 599.736 374.429 591.875C341.418 586.226 309.134 576.942 278.165 564.192C214.941 538.411 166.816 499.549 115.856 458.418C111.843 455.177 107.811 451.923 103.76 448.658C100.741 446.222 97.6292 443.697 94.6229 441.25C69.8785 421.106 41.8322 398.275 4.17584 384.132C-33.5878 369.949 -73.0288 360.578 -111.172 351.514C-126.322 347.911 -141.991 344.19 -157.028 340.27L-157.278 341.229C-142.23 345.147 -126.56 348.878 -111.399 352.473C-73.2865 361.53 -33.8753 370.894 3.82814 385.055C41.3311 399.144 69.3123 421.918 93.9971 442.014C97.0033 444.461 100.113 446.993 103.137 449.426C107.19 452.686 111.222 455.939 115.231 459.185C147.202 484.995 178.066 509.911 212.246 531.274C233.079 544.417 255.008 555.736 277.789 565.104C308.824 577.884 341.178 587.191 374.261 592.855C420.465 600.728 471 601.314 519.872 601.88L528.68 601.984C544.422 602.183 560.7 602.38 576.639 602.898C636.813 604.841 706.557 610.53 767.591 637.999C778.602 642.962 789.326 648.539 799.712 654.703C852.067 685.982 892.965 733.153 924.743 798.916C944.195 839.074 958.961 882.858 973.236 925.196C980.17 945.764 987.341 967.033 994.872 987.303C1003.01 1009.86 1012.38 1031.95 1022.94 1053.47C1037.93 1083.68 1056.55 1114.36 1084.18 1131.63" fill="url(#paint13_linear_81_472)" fill-opacity="0.7"/>
<path d="M1064.42 1124.87C1078.87 1133.92 1095.63 1138.56 1112.67 1138.23C1152.4 1137.94 1191.16 1121.34 1228.64 1105.28C1243.76 1098.81 1258.04 1092.69 1272.39 1087.58C1325.25 1068.58 1387.21 1051.71 1445.95 1070.63C1501.98 1088.57 1542.46 1129.92 1581.6 1169.91C1584.48 1172.85 1587.46 1175.89 1590.36 1178.84L1591.11 1178.11C1588.2 1175.16 1585.23 1172.12 1582.35 1169.17C1563.12 1149.53 1543.24 1129.22 1521.05 1111.48C1495.9 1091.38 1471.44 1077.68 1446.26 1069.63C1387.23 1050.61 1325.06 1067.53 1272.03 1086.59C1257.65 1091.71 1243.37 1097.84 1228.23 1104.31C1190.84 1120.33 1152.18 1136.9 1112.67 1137.18C1055.82 1137.58 1026.46 1090.35 1005.25 1044.1C995.368 1022.29 986.624 999.981 979.049 977.266C972.279 957.574 965.809 936.942 959.551 916.989C945.954 873.624 931.887 828.778 913.032 787.495C882.438 720.354 842.655 671.997 791.409 639.66C781.151 633.228 770.527 627.397 759.593 622.197C732.356 609.266 702.011 600.083 666.823 594.126C638.949 589.406 607.905 586.681 569.125 585.549C552.492 585.069 535.448 584.958 519.415 584.885C514.024 584.864 508.633 584.849 503.241 584.84C457.676 584.736 410.559 584.629 366.883 579C333.295 574.657 300.186 567.183 267.988 556.678C194.539 532.904 136.275 492.434 79.9281 453.292C75.4245 450.163 70.9932 447.022 66.3068 443.699C39.9298 424.996 12.6553 405.656 -22.7873 392.154C-59.065 378.173 -96.7816 367.758 -133.257 357.686C-149.62 353.168 -166.539 348.495 -182.821 343.628L-183.121 344.631C-166.827 349.498 -149.904 354.175 -133.535 358.695C-97.0852 368.76 -59.3938 379.168 -23.1619 393.132C12.1565 406.589 39.3776 425.889 65.701 444.554C70.3938 447.881 74.8268 451.026 79.3345 454.156C135.744 493.339 194.074 533.858 267.67 557.677C299.928 568.203 333.1 575.691 366.753 580.042C410.492 585.685 457.641 585.792 503.24 585.895C508.63 585.907 514.02 585.922 519.411 585.94C535.437 586.013 552.478 586.127 569.096 586.605C628.668 588.343 697.832 594.043 759.144 623.153C770.042 628.334 780.628 634.145 790.85 640.556C841.918 672.78 881.566 720.986 912.08 787.939C930.908 829.163 944.961 873.975 958.552 917.312C964.812 937.272 971.287 957.906 978.062 977.617C985.648 1000.37 994.406 1022.71 1004.3 1044.55C1018.64 1075.82 1036.7 1107.54 1064.43 1124.87" fill="url(#paint14_linear_81_472)" fill-opacity="0.7"/>
<path d="M-208.957 348.011C-190.91 354.106 -172.222 360.006 -154.145 365.712C-119.866 376.532 -84.4202 387.722 -50.1465 401.194C-17.3035 413.971 9.88897 430.776 36.1858 447.028C42.8483 451.146 49.1461 455.038 55.5406 458.87C85.4148 476.779 117.811 495.607 152.272 511.981C185.981 528.264 221.257 541.081 257.556 550.235C290.959 558.541 324.96 564.222 359.248 567.226C399.91 570.808 443.138 570.454 484.936 570.107C493.803 570.034 502.974 569.957 512.001 569.923C527.668 569.866 544.514 569.875 561.558 570.314C617.135 571.761 688.86 577.387 750.703 608.309C761.489 613.708 771.939 619.754 781.995 626.413C831.803 659.56 870.212 708.81 899.422 776.967C917.621 819.344 930.956 865.28 943.851 909.704C949.442 928.965 955.223 948.884 961.25 967.932C969.46 994.104 977.439 1016.24 985.663 1035.62C994.199 1055.84 1006.27 1081.5 1024 1100.71C1032.24 1109.87 1042.16 1117.35 1053.22 1122.76C1065.28 1128.38 1078.49 1131.11 1091.78 1130.73C1132.69 1129.94 1172.51 1112.1 1211.03 1094.84C1226.7 1087.82 1241.51 1081.19 1256.37 1075.65C1310.75 1055.25 1374.55 1037.16 1435.43 1057.71C1493.4 1077.19 1534.57 1121.97 1574.39 1165.28C1577.22 1168.35 1580.03 1171.4 1582.82 1174.43L1583.63 1173.68C1580.84 1170.66 1578.03 1167.61 1575.2 1164.53C1555.65 1143.28 1535.44 1121.29 1512.74 1102.07C1487 1080.27 1461.82 1065.42 1435.78 1056.67C1408.3 1047.39 1378.49 1045.24 1344.65 1050.09C1310.81 1054.95 1277.84 1066.41 1255.99 1074.62C1241.1 1080.16 1226.27 1086.81 1210.58 1093.84C1172.17 1111.05 1132.44 1128.84 1091.77 1129.63C1034.76 1130.72 1006.65 1082.51 986.674 1035.2C978.47 1015.85 970.498 993.736 962.298 967.599C956.275 948.563 950.496 928.651 944.908 909.394C932.004 864.937 918.661 818.969 900.434 776.531C886.366 743.71 870.654 716.008 852.398 691.843C842.779 679.07 832.157 667.084 820.634 655.998C808.878 644.732 796.152 634.524 782.603 625.493C772.508 618.811 762.019 612.745 751.192 607.328C724.14 593.801 693.986 584.206 659.011 577.996C630.898 573.004 599.939 570.214 561.581 569.215C544.524 568.776 527.667 568.767 511.992 568.823C502.965 568.865 493.797 568.937 484.926 569.008C443.153 569.354 399.957 569.712 359.343 566.132C325.111 563.134 291.165 557.464 257.816 549.173C180.028 529.926 115.515 493.545 56.101 457.935C49.7101 454.104 43.4188 450.216 36.7595 446.101C10.4204 429.823 -16.8124 412.986 -49.7502 400.178C-84.0608 386.698 -119.525 375.504 -153.821 364.677C-171.89 358.973 -190.571 353.075 -208.611 346.983L-208.957 348.011Z" fill="url(#paint15_linear_81_472)" fill-opacity="0.7"/>
<path d="M-234.794 351.394C-213.681 359.348 -191.885 367.089 -170.805 374.575C-139.99 385.519 -108.126 396.835 -77.1267 409.248C-47.5636 420.993 -21.3904 435.117 3.92072 448.775C13.4997 453.944 22.5478 458.827 31.752 463.575C72.1705 484.437 104.205 499.114 135.616 511.179C171.792 525.281 209.242 535.866 247.447 542.786C281.928 548.907 316.77 552.785 351.753 554.396C388.492 556.155 427.009 555.364 464.258 554.6C477.473 554.329 491.137 554.049 504.587 553.884C518.114 553.722 535.954 553.593 554.014 554.003C609.126 555.264 680.328 560.887 742.256 593.447C752.931 599.063 763.243 605.343 773.133 612.25C821.696 646.311 858.865 696.594 886.759 765.975C904.333 809.607 916.93 856.772 929.106 902.382C934.037 920.846 939.137 939.938 944.434 958.231C952.081 984.854 959.467 1007.25 967.016 1026.69C974.984 1047.28 986.347 1073.42 1003.61 1093.01C1011.6 1102.33 1021.38 1109.95 1032.36 1115.42C1044.38 1121.1 1057.61 1123.78 1070.89 1123.21C1112.99 1121.91 1153.89 1102.83 1193.45 1084.38C1209.67 1076.82 1224.99 1069.67 1240.35 1063.71C1296.26 1041.9 1361.9 1022.59 1424.91 1044.79C1484.8 1065.82 1528.56 1116.22 1567.17 1160.68C1569.89 1163.81 1572.59 1166.92 1575.28 1170L1576.15 1169.24C1573.46 1166.16 1570.76 1163.05 1568.05 1159.92C1548.18 1137.04 1527.64 1113.38 1504.43 1092.67C1478.09 1069.16 1452.21 1053.15 1425.29 1043.7C1396.94 1033.71 1366.19 1031.35 1331.3 1036.49C1296.24 1041.64 1262.36 1053.88 1239.93 1062.63C1224.54 1068.61 1209.2 1075.76 1192.96 1083.33C1153.51 1101.73 1112.71 1120.75 1070.86 1122.05C1013.65 1123.83 986.813 1074.63 968.101 1026.28C960.565 1006.87 953.19 984.506 945.557 957.919C940.267 939.639 935.175 920.556 930.24 902.096C918.049 856.449 905.442 809.249 887.843 765.552C874.444 732.227 859.416 704.096 841.897 679.553C832.616 666.503 822.308 654.215 811.07 642.807C799.611 631.216 787.138 620.673 773.802 611.302C763.872 604.368 753.518 598.063 742.8 592.423C715.94 578.301 685.981 568.296 651.207 561.832C622.904 556.572 592.029 553.716 554.043 552.846C535.966 552.436 518.109 552.571 504.574 552.728C491.117 552.894 477.452 553.174 464.234 553.445C427.004 554.208 388.507 554.998 351.809 553.241C316.876 551.633 282.084 547.76 247.653 541.648C164.355 526.815 94.9166 494.865 32.2855 462.548C23.0914 457.805 14.0474 452.924 4.4737 447.758C-20.8673 434.083 -47.0745 419.94 -76.6955 408.174C-107.714 395.754 -139.591 384.433 -170.416 373.486C-191.489 365.998 -213.283 358.262 -234.383 350.312L-234.794 351.394Z" fill="url(#paint16_linear_81_472)" fill-opacity="0.7"/>
<path d="M-260.635 354.776C-232.091 366.65 -202.714 378.198 -174.303 389.367C-151.262 398.426 -127.434 407.792 -104.112 417.309C-79.7283 427.202 -56.7541 438.082 -34.5363 448.602C-19.9156 455.525 -6.10244 462.068 7.96169 468.286C48.3743 486.159 84.6848 499.921 118.957 510.374C157.568 522.305 197.194 530.663 237.336 535.341C272.838 539.322 308.527 541.403 344.251 541.574C375.811 541.827 408.494 540.686 440.097 539.582C458.794 538.927 478.127 538.25 497.179 537.858C516.412 537.47 532.078 537.422 546.478 537.704C601.17 538.785 671.886 544.4 733.815 578.594C744.381 584.428 754.556 590.942 764.278 598.095C811.627 633.053 847.551 684.373 874.103 754.99C891.048 799.996 902.888 848.515 914.342 895.429C918.625 912.977 923.051 931.123 927.628 948.533C934.807 976.016 941.402 998.013 948.383 1017.75C955.773 1038.71 966.415 1065.32 983.232 1085.28C990.974 1094.76 1000.61 1102.52 1011.52 1108.06C1023.5 1113.8 1036.74 1116.43 1050.01 1115.69C1093.31 1113.85 1135.31 1093.54 1175.93 1073.9C1192.68 1065.8 1208.51 1058.15 1224.35 1051.77C1278.43 1029.9 1348.9 1007.88 1414.4 1031.86C1476.23 1054.44 1520.71 1108.46 1559.95 1156.11C1562.57 1159.29 1565.17 1162.44 1567.76 1165.58L1568.7 1164.8C1566.11 1161.67 1563.51 1158.52 1560.89 1155.34C1540.71 1130.83 1519.84 1105.48 1496.12 1083.27C1469.2 1058.06 1442.61 1040.87 1414.82 1030.72C1399.3 1025.09 1383.06 1021.69 1366.58 1020.6C1350.34 1019.6 1334.04 1020.35 1317.96 1022.87C1290.36 1027.03 1260.47 1035.85 1223.89 1050.64C1208.02 1057.03 1192.17 1064.7 1175.4 1072.81C1134.9 1092.4 1093.01 1112.65 1049.96 1114.48C992.52 1116.92 966.956 1066.75 949.534 1017.35C942.565 997.642 935.98 975.676 928.809 948.226C924.235 930.822 919.809 912.683 915.528 895.142C904.064 848.193 892.217 799.638 875.241 754.559C862.518 720.722 848.172 692.163 831.384 667.249C822.441 653.924 812.446 641.336 801.496 629.604C790.335 617.696 778.119 606.822 764.998 597.115C755.234 589.931 745.014 583.388 734.403 577.527C707.744 562.811 677.976 552.392 643.393 545.674C615.33 540.223 583.635 537.217 546.497 536.484C532.079 536.202 516.394 536.247 497.149 536.638C478.09 537.028 458.752 537.704 440.055 538.354C408.468 539.46 375.805 540.604 344.264 540.348C308.583 540.177 272.937 538.098 237.478 534.122C165.011 525.815 94.3767 505.165 8.45626 467.163C-5.59887 460.946 -19.4009 454.411 -34.013 447.491C-56.246 436.964 -79.2369 426.076 -103.65 416.171C-126.978 406.653 -150.809 397.284 -173.855 388.225C-202.259 377.058 -231.631 365.511 -260.165 353.641L-260.635 354.776Z" fill="url(#paint17_linear_81_472)" fill-opacity="0.7"/>
<path d="M-286.476 358.155C-241.456 378.66 -192.084 400.017 -131.097 425.367C-118.259 430.686 -105.465 436.127 -93.0926 441.388C-66.5523 452.672 -41.4844 463.33 -15.8278 472.995C72.2704 506.177 149.503 523.621 227.225 527.893C259.156 529.743 293.958 530.015 336.752 528.753C360.767 527.966 385.35 526.676 409.131 525.426C435.532 524.039 462.833 522.604 489.758 521.835C508.537 521.301 524.161 521.166 538.929 521.409C588.995 522.238 662.791 527.527 725.361 563.744C735.817 569.797 745.855 576.546 755.407 583.944C802.209 620.283 835.898 671.145 861.435 744.01C877.749 790.528 888.811 840.535 899.509 888.893C903.157 905.388 906.931 922.442 910.809 938.844C917.41 966.856 923.424 989.093 929.737 1008.83C936.547 1030.13 946.457 1057.21 962.838 1077.57C970.329 1087.2 979.82 1095.1 990.657 1100.71C1002.6 1106.52 1015.86 1109.1 1029.11 1108.19C1073.62 1105.8 1116.72 1084.26 1158.41 1063.43C1175.69 1054.8 1192 1046.64 1208.32 1039.84C1263.85 1016.65 1336.26 993.311 1403.88 1018.95C1467.63 1043.09 1512.82 1100.73 1552.7 1151.59C1555.21 1154.8 1557.72 1157.99 1560.21 1161.16L1561.21 1160.38C1558.72 1157.21 1556.21 1154.02 1553.7 1150.81C1533.2 1124.67 1512.01 1097.63 1487.79 1073.91C1460.28 1046.98 1432.98 1028.61 1404.33 1017.76C1388.38 1011.76 1371.65 1008.12 1354.66 1006.94C1337.94 1005.84 1321.15 1006.62 1304.6 1009.27C1276.09 1013.66 1245.34 1023 1207.83 1038.66C1191.47 1045.49 1175.13 1053.65 1157.84 1062.29C1116.27 1083.06 1073.29 1104.55 1029.04 1106.92C1002.61 1108.33 981.285 1098.47 963.826 1076.77C947.578 1056.57 937.719 1029.64 930.945 1008.43C924.646 988.731 918.637 966.527 912.044 938.548C908.172 922.158 904.397 905.106 900.749 888.616C890.043 840.221 878.974 790.177 862.634 743.585C850.593 709.231 836.932 680.242 820.867 654.964C802.458 625.997 781.3 602.437 756.187 582.937C746.59 575.503 736.504 568.722 725.997 562.64C699.545 547.329 669.97 536.499 635.582 529.528C607.402 523.816 575.792 520.743 538.951 520.134C524.163 519.89 508.521 520.025 489.722 520.561C462.787 521.326 435.471 522.771 409.065 524.153C385.294 525.402 360.714 526.694 336.713 527.48C293.96 528.742 259.192 528.47 227.298 526.622C149.705 522.358 72.5951 504.939 -15.3797 471.803C-41.0127 462.148 -66.0657 451.491 -92.5969 440.216C-104.973 434.955 -117.769 429.513 -130.614 424.189C-191.591 398.844 -240.948 377.494 -285.954 356.994L-286.476 358.155Z" fill="url(#paint18_linear_81_472)" fill-opacity="0.7"/>
<path d="M-312.313 361.532C-277.522 378.76 -231.637 401.166 -185.234 421.669C-138.688 442.237 -96.5358 458.772 -56.3498 472.232C-12.8133 487.024 31.7206 498.7 76.9142 507.172C123.153 515.826 170.083 520.266 217.124 520.439C269.174 520.588 321.858 516.579 372.808 512.703C408.687 509.974 445.787 507.152 482.354 505.804C558.569 502.995 646.037 505.919 716.919 548.887C832.225 618.784 858.862 753.017 884.628 882.834C892.837 924.195 900.59 963.262 911.102 999.886C917.318 1021.54 926.499 1049.07 942.452 1069.84C949.691 1079.63 959.038 1087.66 969.801 1093.34C981.709 1099.22 994.989 1101.75 1008.22 1100.67C1053.94 1097.73 1098.16 1074.96 1140.92 1052.94C1158.71 1043.78 1175.52 1035.13 1192.3 1027.9C1249.28 1003.38 1323.63 978.731 1393.36 1006.02C1459.04 1031.73 1504.94 1093.02 1545.44 1147.09C1547.86 1150.33 1550.27 1153.54 1552.67 1156.74L1553.73 1155.94C1551.33 1152.75 1548.92 1149.53 1546.5 1146.29C1525.7 1118.51 1504.19 1089.79 1479.46 1064.55C1451.38 1035.89 1423.37 1016.34 1393.85 1004.78C1377.48 998.426 1360.26 994.545 1342.76 993.265C1325.56 992.077 1308.27 992.88 1291.26 995.657C1261.84 1000.28 1230.23 1010.13 1191.78 1026.68C1174.96 1033.92 1158.13 1042.58 1140.32 1051.75C1097.68 1073.71 1053.59 1096.41 1008.14 1099.34C981.626 1101.05 960.482 1091.14 943.507 1069.03C927.691 1048.43 918.564 1021.06 912.376 999.522C901.88 962.952 894.131 923.911 885.928 882.578C873.226 818.573 860.087 752.392 835.679 693.503C822.485 661.669 807.283 634.913 789.208 611.708C779.521 599.243 768.763 587.65 757.055 577.061C744.853 566.077 731.643 556.266 717.601 547.76C685.424 528.255 648.095 515.598 603.489 509.074C559.697 502.666 515.719 503.258 482.298 504.489C445.705 505.837 408.593 508.658 372.699 511.39C321.775 515.263 269.116 519.27 217.119 519.121C23.6859 518.573 -143.415 443.707 -311.73 360.353L-312.313 361.532Z" fill="url(#paint19_linear_81_472)" fill-opacity="0.7"/>
</g>
</g>
<defs>
<linearGradient id="paint0_linear_81_472" x1="994.728" y1="676.52" x2="810.139" y2="971.863" gradientUnits="userSpaceOnUse">
<stop stop-color="#2431DD"/>
<stop offset="1" stop-color="#373737"/>
</linearGradient>
<linearGradient id="paint1_linear_81_472" x1="971.338" y1="686.775" x2="801.835" y2="957.979" gradientUnits="userSpaceOnUse">
<stop stop-color="#2431DD"/>
<stop offset="1" stop-color="#373737"/>
</linearGradient>
<linearGradient id="paint2_linear_81_472" x1="947.942" y1="696.981" x2="793.393" y2="944.26" gradientUnits="userSpaceOnUse">
<stop stop-color="#2431DD"/>
<stop offset="1" stop-color="#373737"/>
</linearGradient>
<linearGradient id="paint3_linear_81_472" x1="924.579" y1="707.181" x2="784.869" y2="930.717" gradientUnits="userSpaceOnUse">
<stop stop-color="#2431DD"/>
<stop offset="1" stop-color="#373737"/>
</linearGradient>
<linearGradient id="paint4_linear_81_472" x1="901.201" y1="717.396" x2="776.213" y2="917.377" gradientUnits="userSpaceOnUse">
<stop stop-color="#2431DD"/>
<stop offset="1" stop-color="#373737"/>
</linearGradient>
<linearGradient id="paint5_linear_81_472" x1="877.796" y1="727.613" x2="767.394" y2="904.255" gradientUnits="userSpaceOnUse">
<stop stop-color="#2431DD"/>
<stop offset="1" stop-color="#373737"/>
</linearGradient>
<linearGradient id="paint6_linear_81_472" x1="864.29" y1="721.992" x2="758.377" y2="891.452" gradientUnits="userSpaceOnUse">
<stop stop-color="#2431DD"/>
<stop offset="1" stop-color="#373737"/>
</linearGradient>
<linearGradient id="paint7_linear_81_472" x1="851.974" y1="714.514" x2="744.576" y2="886.352" gradientUnits="userSpaceOnUse">
<stop stop-color="#2431DD"/>
<stop offset="1" stop-color="#373737"/>
</linearGradient>
<linearGradient id="paint8_linear_81_472" x1="839.647" y1="707.042" x2="729.9" y2="882.637" gradientUnits="userSpaceOnUse">
<stop stop-color="#2431DD"/>
<stop offset="1" stop-color="#373737"/>
</linearGradient>
<linearGradient id="paint9_linear_81_472" x1="827.868" y1="698.695" x2="715.215" y2="878.94" gradientUnits="userSpaceOnUse">
<stop stop-color="#2431DD"/>
<stop offset="1" stop-color="#373737"/>
</linearGradient>
<linearGradient id="paint10_linear_81_472" x1="817.184" y1="688.631" x2="700.54" y2="875.261" gradientUnits="userSpaceOnUse">
<stop stop-color="#2431DD"/>
<stop offset="1" stop-color="#373737"/>
</linearGradient>
<linearGradient id="paint11_linear_81_472" x1="808.388" y1="675.538" x2="685.86" y2="871.584" gradientUnits="userSpaceOnUse">
<stop stop-color="#2431DD"/>
<stop offset="1" stop-color="#373737"/>
</linearGradient>
<linearGradient id="paint12_linear_81_472" x1="799.886" y1="661.987" x2="671.157" y2="867.953" gradientUnits="userSpaceOnUse">
<stop stop-color="#2431DD"/>
<stop offset="1" stop-color="#373737"/>
</linearGradient>
<linearGradient id="paint13_linear_81_472" x1="791.466" y1="648.308" x2="656.466" y2="864.308" gradientUnits="userSpaceOnUse">
<stop stop-color="#2431DD"/>
<stop offset="1" stop-color="#373737"/>
</linearGradient>
<linearGradient id="paint14_linear_81_472" x1="783.132" y1="634.487" x2="641.749" y2="860.701" gradientUnits="userSpaceOnUse">
<stop stop-color="#2431DD"/>
<stop offset="1" stop-color="#373737"/>
</linearGradient>
<linearGradient id="paint15_linear_81_472" x1="774.878" y1="620.544" x2="621.006" y2="866.739" gradientUnits="userSpaceOnUse">
<stop stop-color="#2431DD"/>
<stop offset="1" stop-color="#373737"/>
</linearGradient>
<linearGradient id="paint16_linear_81_472" x1="766.725" y1="606.434" x2="600.024" y2="873.155" gradientUnits="userSpaceOnUse">
<stop stop-color="#2431DD"/>
<stop offset="1" stop-color="#373737"/>
</linearGradient>
<linearGradient id="paint17_linear_81_472" x1="758.653" y1="592.202" x2="579.045" y2="879.575" gradientUnits="userSpaceOnUse">
<stop stop-color="#2431DD"/>
<stop offset="1" stop-color="#373737"/>
</linearGradient>
<linearGradient id="paint18_linear_81_472" x1="750.644" y1="577.861" x2="558.062" y2="885.991" gradientUnits="userSpaceOnUse">
<stop stop-color="#2431DD"/>
<stop offset="1" stop-color="#373737"/>
</linearGradient>
<linearGradient id="paint19_linear_81_472" x1="742.706" y1="563.421" x2="537.089" y2="892.408" gradientUnits="userSpaceOnUse">
<stop stop-color="#2431DD"/>
<stop offset="1" stop-color="#373737"/>
</linearGradient>
</defs>
</svg>
