<svg width="46" height="46" viewBox="0 0 46 46" fill="none" xmlns="http://www.w3.org/2000/svg">
<g clip-path="url(#clip0_86_52)">
<path d="M11.1487 17.9082L11.0684 17.9062C10.1002 17.8847 9.2961 18.647 9.27182 19.6149C9.24763 20.5828 10.0126 21.3872 10.9805 21.4114L11.0759 21.4137C14.8659 21.4871 17.9494 24.6321 17.9494 28.4245C17.9494 32.2912 14.8035 35.437 10.9368 35.437C7.07004 35.437 3.9242 32.2912 3.9242 28.4245C3.9242 23.5947 5.07286 19.1381 7.33854 15.1781C9.03181 12.2184 10.7538 10.655 10.7859 10.6261C11.508 9.98506 11.5759 8.87987 10.9365 8.15521C10.2958 7.42932 9.18811 7.35998 8.46204 8.0005C8.37728 8.07535 6.363 9.87189 4.38019 13.2893C2.57252 16.4047 0.417908 21.5594 0.417908 28.4245C0.417908 34.2246 5.13667 38.9433 10.9368 38.9433C16.7369 38.9433 21.4557 34.2246 21.4557 28.4245C21.4557 25.6509 20.3855 23.0338 18.4425 21.0552C16.5034 19.0806 13.9131 17.9631 11.1487 17.9082Z" fill="#FFCD00"/>
<path d="M42.2852 21.0552C40.3459 19.0805 37.7558 17.963 34.9913 17.9082L34.911 17.9062C33.946 17.8847 33.1388 18.647 33.1145 19.6149C33.0902 20.5828 33.8553 21.3871 34.8232 21.4114L34.9185 21.4137C38.7086 21.4872 41.792 24.6322 41.792 28.4244C41.792 32.2912 38.6462 35.437 34.7794 35.437C30.9127 35.437 27.7669 32.2912 27.7669 28.4244C27.7669 23.5947 28.9155 19.1379 31.1811 15.1782C32.8744 12.2185 34.5963 10.6551 34.6285 10.6262C35.3507 9.98503 35.4185 8.87994 34.7791 8.15528C34.1385 7.4293 33.0307 7.35996 32.3046 8.00056C32.2199 8.07542 30.2056 9.87196 28.2228 13.2894C26.4152 16.4047 24.2606 21.5594 24.2606 28.4244C24.2606 34.2245 28.9793 38.9433 34.7794 38.9433C40.5795 38.9433 45.2983 34.2245 45.2983 28.4244C45.2983 25.6509 44.2282 23.0338 42.2852 21.0552Z" fill="#FFCD00"/>
</g>
<defs>
<clipPath id="clip0_86_52">
<rect width="44.8813" height="44.8813" fill="white" transform="translate(0.414062 0.812012)"/>
</clipPath>
</defs>
</svg>
